<?xml version="1.0" encoding="UTF-8" standalone="no"?>
<svg
   xmlns:dc="http://purl.org/dc/elements/1.1/"
   xmlns:cc="http://creativecommons.org/ns#"
   xmlns:rdf="http://www.w3.org/1999/02/22-rdf-syntax-ns#"
   xmlns:svg="http://www.w3.org/2000/svg"
   xmlns="http://www.w3.org/2000/svg"
   xmlns:xlink="http://www.w3.org/1999/xlink"
   xmlns:sodipodi="http://sodipodi.sourceforge.net/DTD/sodipodi-0.dtd"
   xmlns:inkscape="http://www.inkscape.org/namespaces/inkscape"
   id="svg7468"
   viewBox="0 0 256 256"
   version="1.1"
   inkscape:version="0.48.2 r9819"
   width="100%"
   height="100%"
   sodipodi:docname="calendar.svg"
   inkscape:export-filename="C:\Users\User\Downloads\tools_dates.png"
   inkscape:export-xdpi="90"
   inkscape:export-ydpi="90">
  <sodipodi:namedview
     pagecolor="#ffffff"
     bordercolor="#666666"
     borderopacity="1"
     objecttolerance="10"
     gridtolerance="10"
     guidetolerance="10"
     inkscape:pageopacity="0"
     inkscape:pageshadow="2"
     inkscape:window-width="1366"
     inkscape:window-height="706"
     id="namedview99"
     showgrid="false"
     inkscape:zoom="1.9998305"
     inkscape:cx="55.58"
     inkscape:cy="161.34217"
     inkscape:window-x="-8"
     inkscape:window-y="-8"
     inkscape:window-maximized="1"
     inkscape:current-layer="svg7468" />
  <defs
     id="defs3">
    <linearGradient
       id="linearGradient8586">
      <stop
         id="stop8588"
         stop-color="#595d5f"
         offset="0" />
      <stop
         id="stop8590"
         stop-color="#cecece"
         offset="1" />
    </linearGradient>
    <linearGradient
       id="linearGradient8210">
      <stop
         id="stop8212"
         stop-color="#555753"
         offset="0" />
      <stop
         id="stop8214"
         offset="1" />
    </linearGradient>
    <filter
       id="filter8088"
       width="1.3739001"
       y="-0.038171001"
       x="-0.18693"
       height="1.0763"
       color-interpolation-filters="sRGB">
      <feGaussianBlur
         id="feGaussianBlur8090"
         stdDeviation="0.32944879" />
    </filter>
    <linearGradient
       id="linearGradient8172"
       x1="43.133999"
       spreadMethod="reflect"
       gradientUnits="userSpaceOnUse"
       y1="300.35001"
       gradientTransform="translate(-1.7678,1.3345)"
       x2="78.488998"
       y2="297.22">
      <stop
         id="stop8168"
         stop-color="#fff"
         offset="0" />
      <stop
         id="stop8170"
         stop-color="#fff"
         stop-opacity="0"
         offset="1" />
    </linearGradient>
    <linearGradient
       id="linearGradient8335"
       x1="59.042999"
       gradientUnits="userSpaceOnUse"
       y1="-261.62"
       gradientTransform="matrix(1,0,0,-1,-0.073223,0.051777)"
       x2="78.355003"
       y2="-280.64001">
      <stop
         id="stop8339"
         stop-color="#cdcdcd"
         offset="0" />
      <stop
         id="stop8341"
         stop-color="#848484"
         stop-opacity=".63137"
         offset=".60304" />
      <stop
         id="stop8343"
         stop-color="#fff"
         offset="1" />
    </linearGradient>
    <linearGradient
       id="linearGradient8361"
       x1="35.341999"
       gradientUnits="userSpaceOnUse"
       y1="249.94"
       gradientTransform="translate(37.83,25.279)"
       x2="39.952"
       y2="257.03">
      <stop
         id="stop8357"
         stop-color="#505050"
         offset="0" />
      <stop
         id="stop8359"
         stop-color="#505050"
         stop-opacity="0"
         offset="1" />
    </linearGradient>
    <filter
       id="filter8371"
       color-interpolation-filters="sRGB">
      <feGaussianBlur
         id="feGaussianBlur8373"
         stdDeviation="0.64658635" />
    </filter>
    <radialGradient
       id="radialGradient8399"
       gradientUnits="userSpaceOnUse"
       cy="263.85999"
       cx="67"
       gradientTransform="matrix(1,0,0,0.67164,0,86.641)"
       r="16.75">
      <stop
         id="stop8395"
         stop-color="#fff"
         offset="0" />
      <stop
         id="stop8397"
         stop-color="#fff"
         stop-opacity="0"
         offset="1" />
    </radialGradient>
    <linearGradient
       id="linearGradient8430"
       x1="114.5"
       gradientUnits="userSpaceOnUse"
       y1="215.86"
       gradientTransform="matrix(0.99561,0,0,1,-100.75,-3)"
       x2="157.5"
       y2="236.17999">
      <stop
         id="stop8426"
         stop-color="#729fcf"
         offset="0" />
      <stop
         id="stop8428"
         stop-color="#3465a4"
         offset="1" />
    </linearGradient>
    <linearGradient
       id="linearGradient8606"
       x1="43.487"
       xlink:href="#linearGradient8586"
       gradientUnits="userSpaceOnUse"
       y1="-429.39999"
       gradientTransform="matrix(1,0,0,0.99209,-0.17678,-6.3874)"
       x2="43.452"
       y2="-435.98999" />
    <linearGradient
       id="linearGradient8608"
       x1="43.487"
       xlink:href="#linearGradient8586"
       gradientUnits="userSpaceOnUse"
       y1="-429.39999"
       gradientTransform="translate(-0.17678,-1.2929)"
       x2="43.452"
       y2="-435.98999" />
    <linearGradient
       id="linearGradient8610"
       x1="43.487"
       xlink:href="#linearGradient8586"
       gradientUnits="userSpaceOnUse"
       y1="-429.39999"
       gradientTransform="translate(-0.17678,0.70711)"
       x2="43.452"
       y2="-435.98999" />
    <linearGradient
       id="linearGradient8612"
       x1="23.212999"
       gradientUnits="userSpaceOnUse"
       y1="204.56"
       gradientTransform="translate(-2.4749,-637.85)"
       x2="45.75"
       y2="256.16">
      <stop
         id="stop8640"
         stop-color="#e8e8e8"
         offset="0" />
      <stop
         id="stop8642"
         stop-color="#ccc"
         offset="1" />
    </linearGradient>
    <linearGradient
       id="linearGradient8614"
       x1="37.549999"
       gradientUnits="userSpaceOnUse"
       y1="-365.54999"
       gradientTransform="translate(0,17.854)"
       x2="35.212002"
       y2="-437.14999">
      <stop
         id="stop8550"
         stop-color="#fff"
         offset="0" />
      <stop
         id="stop8552"
         stop-color="#fff"
         stop-opacity="0"
         offset="1" />
    </linearGradient>
    <filter
       id="filter8634"
       color-interpolation-filters="sRGB">
      <feGaussianBlur
         id="feGaussianBlur8636"
         stdDeviation="1.0264286" />
    </filter>
    <filter
       id="filter8702"
       color-interpolation-filters="sRGB">
      <feGaussianBlur
         id="feGaussianBlur8704"
         stdDeviation="0.174375" />
    </filter>
    <linearGradient
       id="linearGradient8744"
       x1="24.395"
       xlink:href="#linearGradient8210"
       gradientUnits="userSpaceOnUse"
       x2="26.870001"
       y1="211.97"
       y2="213.73" />
    <linearGradient
       id="linearGradient8746"
       x1="17.857"
       gradientUnits="userSpaceOnUse"
       y1="188.42999"
       gradientTransform="matrix(0.78243,0,0,1,-0.44536,-8.217)"
       x2="18.214001"
       y2="207.36">
      <stop
         id="stop7556"
         stop-color="#767272"
         offset="0" />
      <stop
         id="stop7562"
         stop-color="#e6e2e2"
         offset=".39955" />
      <stop
         id="stop7558"
         stop-color="#585858"
         offset="1" />
    </linearGradient>
    <linearGradient
       id="linearGradient8748"
       x1="13.75"
       spreadMethod="reflect"
       gradientUnits="userSpaceOnUse"
       y1="188.61"
       x2="13.538"
       y2="174.67999">
      <stop
         id="stop7568"
         stop-color="#fff"
         offset="0" />
      <stop
         id="stop7570"
         stop-color="#fff"
         stop-opacity="0"
         offset="1" />
    </linearGradient>
    <linearGradient
       id="linearGradient8750"
       x1="24.395"
       xlink:href="#linearGradient8210"
       gradientUnits="userSpaceOnUse"
       y1="211.97"
       gradientTransform="matrix(0.89297,0,0,0.89297,9.2366,-4.6847)"
       x2="26.870001"
       y2="213.73" />
    <linearGradient
       inkscape:collect="always"
       xlink:href="#linearGradient8210"
       id="linearGradient3076"
       gradientUnits="userSpaceOnUse"
       x1="24.395"
       y1="211.97"
       x2="26.870001"
       y2="213.73" />
    <linearGradient
       inkscape:collect="always"
       xlink:href="#linearGradient8746"
       id="linearGradient3078"
       gradientUnits="userSpaceOnUse"
       gradientTransform="matrix(0.78243,0,0,1,-0.44536,-8.217)"
       x1="17.857"
       y1="188.42999"
       x2="18.214001"
       y2="207.36" />
    <linearGradient
       inkscape:collect="always"
       xlink:href="#linearGradient8748"
       id="linearGradient3080"
       gradientUnits="userSpaceOnUse"
       spreadMethod="reflect"
       x1="13.75"
       y1="188.61"
       x2="13.538"
       y2="174.67999" />
    <linearGradient
       inkscape:collect="always"
       xlink:href="#linearGradient8210"
       id="linearGradient3082"
       gradientUnits="userSpaceOnUse"
       gradientTransform="matrix(0.89297,0,0,0.89297,9.2366,-4.6847)"
       x1="24.395"
       y1="211.97"
       x2="26.870001"
       y2="213.73" />
    <linearGradient
       inkscape:collect="always"
       xlink:href="#linearGradient8746"
       id="linearGradient3084"
       gradientUnits="userSpaceOnUse"
       gradientTransform="matrix(0.78243,0,0,1,-0.44536,-8.217)"
       x1="17.857"
       y1="188.42999"
       x2="18.214001"
       y2="207.36" />
    <linearGradient
       inkscape:collect="always"
       xlink:href="#linearGradient8748"
       id="linearGradient3086"
       gradientUnits="userSpaceOnUse"
       spreadMethod="reflect"
       x1="13.75"
       y1="188.61"
       x2="13.538"
       y2="174.67999" />
  </defs>
  <g
     id="layer1"
     transform="matrix(2.1425877,0,0,2.1425877,26.298907,-408.44498)">
    <path
       id="path8616"
       d="m 2.9137,207.01 h 91.244 c 3.7114,0 6.6994,2.9879 6.6994,6.6994 v 87.244 c 0,3.7115 -2.9879,6.6994 -6.6994,6.6994 H 2.9137 c -3.7115,0 -6.6994,-2.9879 -6.6994,-6.6994 v -87.244 c 0,-3.7114 2.9879,-6.6994 6.6994,-6.6994 z"
       inkscape:connector-curvature="0"
       style="opacity:0.69388003;fill:#2e3436;filter:url(#filter8634)" />
    <path
       id="rect7550"
       d="m -0.086338,203.51 h 91.244 c 3.7115,0 6.6994,2.9879 6.6994,6.6994 v 87.244 c 0,3.7115 -2.9879,6.6994 -6.6994,6.6994 h -91.244 c -3.7115,0 -6.6994,-2.9879 -6.6994,-6.6994 v -87.244 c 0,-3.7114 2.9879,-6.6994 6.6994,-6.6994 z"
       inkscape:connector-curvature="0"
       style="fill:#2e3436" />
    <g
       id="g8600"
       transform="translate(2,-146)">
      <rect
         id="rect8596"
         transform="scale(1,-1)"
         ry="2.5580001"
         height="44.352001"
         width="80.5"
         y="-438.92999"
         x="3.0251"
         style="fill:url(#linearGradient8606)" />
      <rect
         id="rect8592"
         ry="2.5783999"
         transform="scale(1,-1)"
         height="44.705002"
         width="80.5"
         y="-437.28"
         x="3.0251"
         style="fill:url(#linearGradient8608)" />
      <rect
         id="rect8512"
         transform="scale(1,-1)"
         ry="2.5783999"
         height="44.705002"
         width="80.5"
         y="-435.28"
         x="3.0251"
         style="fill:url(#linearGradient8610)" />
      <rect
         id="rect8556"
         ry="4.5563002"
         transform="scale(1,-1)"
         height="79"
         width="80.5"
         y="-432.98999"
         x="3.0251"
         style="fill:url(#linearGradient8612);stroke:url(#linearGradient8614);stroke-width:0.60000002" />
    </g>
    <path
       id="path8161"
       d="m -7.8401,294.83 v 2.9062 c 0.89849,2.6382 3.3974,4.5312 6.3438,4.5312 h 91.25 c 2.7836,0 5.1453,-1.6822 6.1562,-4.0938 -1.1474,2.0268 -3.3112,3.375 -5.8125,3.375 h -91.25 c -3.7115,0 -6.6875,-3.0073 -6.6875,-6.7188 z m 104.63,0 c 0,0.73051 -0.13025,1.4354 -0.34375,2.0938 v 2.625 c 0,0.8793 -0.16446,1.7304 -0.46875,2.5 0.51288,-0.95201 0.8125,-2.0589 0.8125,-3.2188 v -4 z"
       inkscape:connector-curvature="0"
       style="opacity:0.50612003;fill:url(#linearGradient8172)" />
    <path
       id="path8328"
       d="m 85.156,264.43 c -3.0502,6.4571 -16.152,18.404 -26.688,22.188 1.7121,0.50962 6.0298,-0.59375 7.9062,-0.59375 10.489,0 19,-8.5183 19,-19.062 0,-0.85401 -0.11065,-1.7069 -0.21875,-2.5312 z"
       inkscape:connector-curvature="0"
       style="fill:url(#linearGradient8361);filter:url(#filter8371)" />
    <g
       id="flowRoot8401"
       transform="matrix(1.3036,0,0,1.3036,-147.11,-19.064)">
      <path
         id="path8410"
         d="m 135.4,206.19 c 0,0 1.72,-0.4 3.8,-0.48 l -0.36,15.24 c -3.72,0 -5.08,0.24 -5.08,1.24 0,1.04 0.04,1.96 0.12,2.96 h 13.32 c 1,0 1,-0.96 1,-4.36 0,0 -1.2,0.16 -2.44,0.16 h -2.24 L 144,201.39 c -0.2,-0.16 -0.8,-0.24 -1.16,-0.24 -2.12,0 -8.12,1.36 -8.12,2.28 0,1.08 0.2,1.92 0.68,2.76"
         inkscape:connector-curvature="0" />
      <path
         id="path8412"
         transform="matrix(0.76712,0,0,0.76712,112.85,14.624)"
         d="m 50.531,243.16 -1.625,16.469 c 1.46,-0.365 3.0295,-0.5625 4.5938,-0.5625 5.6836,0 6.75,1.5566 6.75,6.7188 0,3.7021 -2.1616,8.4375 -6.5938,8.4375 -1.8771,0 -3.3425,-0.45714 -4.4375,-1.5 -0.46927,1.4079 -0.625,2.56 -0.625,4.75 0,0.73 1.5368,2.1875 5.8125,2.1875 2.3304,0 4.3382,-0.57334 6.0312,-1.5938 0.68845,-5.245 1.3214,-11.869 0.75,-16.25 1.8116,0.21313 3.5316,0.37541 5.1875,0.5 -0.76624,-7.1944 -5.6842,-8.0625 -9.2812,-8.0625 -0.93856,0 -1.6973,0.11446 -2.2188,0.21875 l 0.626,-6.47 c 0,0 5.5075,0.3125 8.0625,0.3125 2.6071,0 2.9375,-0.93268 2.9375,-5.1562 h -15.969 z"
         inkscape:connector-curvature="0" />
    </g>
    <path
       id="path8375"
       transform="matrix(0.92409,-0.46667,0.45854,0.94046,-116.41,53.352)"
       d="m 83.75,263.86 c 0,6.2132 -7.4992,11.25 -16.75,11.25 -9.2508,0 -16.75,-5.0368 -16.75,-11.25 0,-6.2132 7.4992,-11.25 16.75,-11.25 9.2508,0 16.75,5.0368 16.75,11.25 z"
       inkscape:connector-curvature="0"
       style="opacity:0.58367004;fill:url(#radialGradient8399)" />
    <path
       id="path8316"
       d="m 58.22,286.79 c 12.728,-3.5355 26.749,-18.91 27.457,-24.92 0,0 -9.7161,1.5741 -24.742,-0.19369 1.0607,8.1317 -2.7145,25.114 -2.7145,25.114 z"
       inkscape:connector-curvature="0"
       style="fill:url(#linearGradient8335)" />
    <path
       id="path8417"
       d="m 9.8282,207.38 c -2.5131,0 -4.5425,2.007 -4.5425,4.5312 v 20.969 h 80.146 v -20.969 c 0,-2.5242 -2.0293,-4.5312 -4.5425,-4.5312 H 9.8272 z"
       inkscape:connector-curvature="0"
       style="fill:url(#linearGradient8430);stroke:#9cbcdd" />
    <g
       id="flowRoot8432"
       transform="matrix(0.76708,0,0,0.76708,16.519,96.242)"
       style="fill:#ffffff">
      <path
         id="path8645"
         d="m 24.477,155.99 c 0,0.702 -0.054,1.08 -0.585,1.08 -0.297,0 -0.567,-0.144 -0.738,-0.297 -0.045,0.09 -0.117,0.225 -0.117,0.414 0,0.261 0.216,0.531 0.954,0.531 0.981,0 1.233,-0.675 1.233,-1.566 v -4.815 c -0.747,0 -0.747,0 -0.747,0.333 v 4.32"
         inkscape:connector-curvature="0"
         style="fill:#ffffff" />
      <path
         id="path8647"
         d="m 28.538,157.64 c 0.18,0.018 0.324,0.018 0.432,0.018 0.288,0 0.333,-0.054 0.315,-0.153 l -1.611,-6.165 c -0.09,-0.018 -0.216,-0.027 -0.342,-0.027 -0.162,0 -0.261,0.036 -0.279,0.126 l -1.602,6.192 c 0.171,0.018 0.36,0.027 0.459,0.027 0.288,0 0.315,-0.045 0.342,-0.144 l 0.351,-1.476 h 1.548 l 0.387,1.602 m -1.476,-3.546 c 0.135,-0.603 0.261,-1.296 0.315,-1.728 0.045,0.432 0.171,1.134 0.315,1.728 l 0.306,1.278 h -1.242 l 0.306,-1.278"
         inkscape:connector-curvature="0"
         style="fill:#ffffff" />
      <path
         id="path8649"
         d="M 32.251,157.64 H 32.8 c 0.099,0 0.153,-0.054 0.153,-0.144 v -6.156 c -0.72,0 -0.738,0 -0.738,0.153 v 2.115 c 0,0.423 0.027,2.133 0.09,2.673 v 0.027 c -0.216,-0.675 -0.675,-2.07 -0.855,-2.538 l -1.008,-2.43 h -0.558 c -0.108,0 -0.153,0.045 -0.153,0.153 v 6.147 c 0.729,0 0.729,0 0.729,-0.144 v -2.187 c 0,-0.387 -0.036,-2.106 -0.09,-2.691 0.225,0.702 0.693,2.142 0.855,2.547 l 1.026,2.475"
         inkscape:connector-curvature="0"
         style="fill:#ffffff" />
      <path
         id="path8651"
         d="m 34.477,151.34 c -0.756,0 -0.756,0 -0.756,0.153 v 4.311 c 0,1.044 0.18,1.926 1.62,1.926 0.711,0 1.305,-0.18 1.53,-0.324 v -6.066 c -0.729,0 -0.738,0 -0.738,0.153 v 5.4 c -0.153,0.081 -0.477,0.162 -0.792,0.162 -0.756,0 -0.864,-0.504 -0.864,-1.233 v -4.482"
         inkscape:connector-curvature="0"
         style="fill:#ffffff" />
      <path
         id="path8653"
         d="m 40.403,157.64 c 0.18,0.018 0.324,0.018 0.432,0.018 0.288,0 0.333,-0.054 0.315,-0.153 l -1.611,-6.165 c -0.09,-0.018 -0.216,-0.027 -0.342,-0.027 -0.162,0 -0.261,0.036 -0.279,0.126 l -1.602,6.192 c 0.171,0.018 0.36,0.027 0.459,0.027 0.288,0 0.315,-0.045 0.342,-0.144 l 0.351,-1.476 h 1.548 l 0.387,1.602 m -1.476,-3.546 c 0.135,-0.603 0.261,-1.296 0.315,-1.728 0.045,0.432 0.171,1.134 0.315,1.728 l 0.306,1.278 h -1.242 l 0.306,-1.278"
         inkscape:connector-curvature="0"
         style="fill:#ffffff" />
      <path
         id="path8655"
         d="m 41.596,157.64 c 0.72,0 0.729,0 0.729,-0.144 v -2.412 h 0.315 c 0.054,0 0.117,0 0.18,-0.009 0.216,0.297 0.639,1.044 0.738,2.565 0.162,0.009 0.315,0.018 0.432,0.018 0.342,0 0.369,-0.045 0.369,-0.18 -0.09,-1.422 -0.567,-2.223 -0.846,-2.592 0.468,-0.261 0.783,-0.801 0.783,-1.764 0,-1.251 -0.522,-1.782 -1.656,-1.782 h -0.891 c -0.153,0 -0.153,0.153 -0.153,0.153 v 6.147 m 1.89,-4.554 c 0,0.954 -0.261,1.323 -0.765,1.323 h -0.396 v -2.43 h 0.45 c 0.531,0 0.711,0.423 0.711,1.107"
         inkscape:connector-curvature="0"
         style="fill:#ffffff" />
      <path
         id="path8657"
         d="m 45.669,157.64 c 0.738,0 0.729,0 0.729,-0.144 v -2.457 l 1.215,-3.699 c -0.747,0 -0.747,0 -0.792,0.135 l -0.315,1.098 c -0.171,0.576 -0.423,1.62 -0.45,1.881 -0.018,-0.261 -0.261,-1.305 -0.441,-1.881 l -0.36,-1.233 c -0.846,0 -0.864,0 -0.828,0.117 l 1.242,3.636 v 2.547"
         inkscape:connector-curvature="0"
         style="fill:#ffffff" />
      <path
         id="path8659"
         d="m 17.931,161.12 c -2.016,0 -3.096,1.08 -3.096,2.592 0,0.846 0.306,1.584 1.116,2.592 l 1.818,2.106 c 0.792,0.918 1.044,1.512 1.044,2.34 0,1.098 -0.486,1.836 -1.764,1.836 -0.864,0 -1.476,-0.288 -1.854,-0.63 -0.252,0.324 -0.378,0.756 -0.378,1.044 0,0.504 0.72,1.08 2.358,1.08 2.448,0 3.222,-1.566 3.222,-3.384 0,-1.116 -0.27,-1.926 -1.206,-3.042 l -1.944,-2.214 c -0.54,-0.648 -0.828,-1.116 -0.828,-1.782 0,-0.774 0.684,-1.242 1.746,-1.242 0.828,0 1.512,0.252 1.764,0.45 0.252,-0.27 0.36,-0.594 0.36,-0.846 0,-0.504 -0.648,-0.9 -2.358,-0.9"
         inkscape:connector-curvature="0" />
      <path
         id="path8661"
         d="m 23.087,161.3 c -1.512,0 -1.512,0 -1.512,0.306 v 8.622 c 0,2.088 0.36,3.852 3.24,3.852 1.422,0 2.61,-0.36 3.06,-0.648 V 161.3 c -1.458,0 -1.476,0 -1.476,0.306 v 10.8 c -0.306,0.162 -0.954,0.324 -1.584,0.324 -1.512,0 -1.728,-1.008 -1.728,-2.466 V 161.3"
         inkscape:connector-curvature="0" />
      <path
         id="path8663"
         d="m 34.49,173.9 h 1.098 c 0.198,0 0.306,-0.108 0.306,-0.288 V 161.3 c -1.44,0 -1.476,0 -1.476,0.306 v 4.23 c 0,0.846 0.054,4.266 0.18,5.346 v 0.054 c -0.432,-1.35 -1.35,-4.14 -1.71,-5.076 l -2.016,-4.86 h -1.116 c -0.216,0 -0.306,0.09 -0.306,0.306 V 173.9 c 1.458,0 1.458,0 1.458,-0.288 v -4.374 c 0,-0.774 -0.072,-4.212 -0.18,-5.382 0.45,1.404 1.386,4.284 1.71,5.094 l 2.052,4.95"
         inkscape:connector-curvature="0" />
      <path
         id="path8665"
         d="m 37.934,161.3 c -0.396,0 -0.486,0.126 -0.486,0.342 V 173.9 h 2.25 c 2.214,0 3.51,-1.674 3.51,-6.948 0,-4.374 -1.17,-5.652 -3.528,-5.652 h -1.746 m 3.6,5.508 c 0,4.986 -0.882,5.706 -1.818,5.706 h -0.81 v -9.864 h 0.828 c 1.206,0 1.8,0.82801 1.8,4.158"
         inkscape:connector-curvature="0" />
      <path
         id="path8667"
         d="m 49.354,173.9 c 0.36,0.036 0.648,0.036 0.864,0.036 0.576,0 0.666,-0.108 0.63,-0.306 L 47.626,161.3 c -0.18,-0.036 -0.432,-0.054 -0.684,-0.054 -0.324,0 -0.522,0.072 -0.558,0.252 l -3.204,12.384 c 0.342,0.036 0.72,0.054 0.918,0.054 0.576,0 0.63,-0.09 0.684,-0.288 l 0.702,-2.952 h 3.096 l 0.774,3.204 m -2.952,-7.092 c 0.27,-1.206 0.522,-2.592 0.63,-3.456 0.09,0.864 0.342,2.268 0.63,3.456 l 0.612,2.556 H 45.79 l 0.612,-2.556"
         inkscape:connector-curvature="0" />
      <path
         id="path8669"
         d="m 52.186,173.9 c 1.476,0 1.458,0 1.458,-0.288 v -4.914 l 2.43,-7.398 c -1.494,0 -1.494,0 -1.584,0.27 l -0.63,2.196 c -0.342,1.152 -0.846,3.24 -0.9,3.762 -0.036,-0.522 -0.522,-2.61 -0.882,-3.762 l -0.72,-2.466 c -1.692,0 -1.728,0 -1.656,0.234 l 2.484,7.272 v 5.094"
         inkscape:connector-curvature="0" />
    </g>
    <g
       id="g8728"
       transform="translate(-1.4152,0)">
      <g
         id="g8686"
         transform="translate(-11.667,27.4)">
        <path
           id="path8671"
           d="m 34.936,165.23 v 6.0312 c 1.9909,1.4149 3.375,4.2938 3.375,7.625 0,3.3369 -1.3786,6.2219 -3.375,7.625 v 5.0938 c 4.7703,-0.67805 8.5,-6.3228 8.5,-13.188 0,-6.8647 -3.7297,-12.509 -8.5,-13.188 z"
           inkscape:connector-curvature="0"
           style="opacity:0.2;fill:#494949;filter:url(#filter8702)" />
        <path
           id="path8490"
           transform="matrix(0.89297,0,0,0.89297,9.099,-4.2719)"
           d="m 33.941,213.73 c 0,3.5147 -3.1658,6.364 -7.0711,6.364 -3.9052,0 -7.0711,-2.8492 -7.0711,-6.364 0,-3.5147 3.1658,-6.364 7.0711,-6.364 3.9052,0 7.0711,2.8492 7.0711,6.364 z"
           inkscape:connector-curvature="0"
           style="fill:url(#linearGradient3076)" />
        <g
           id="g8492"
           transform="matrix(1.1009,0,0,1.3252,18.021,-72.299)">
          <rect
             id="rect8494"
             ry="4.6429"
             height="20.714001"
             width="7.2653999"
             y="178.42999"
             x="10.173"
             style="fill:url(#linearGradient3078)" />
          <rect
             id="rect8496"
             transform="matrix(1.1536,0,0,1,-1.8123,0)"
             ry="4.6429"
             height="20.714001"
             width="4.2297001"
             y="178.42999"
             x="11.423"
             style="opacity:0.47126004;fill:url(#linearGradient3080);filter:url(#filter8088)" />
        </g>
        <path
           id="path8498"
           d="m 29.235,188.5 v 2.0298 c 1.0875,0.80934 2.4652,1.3073 3.9908,1.3073 1.5205,0 2.8975,-0.50295 3.9908,-1.3073 v -1.789 c -1.0678,0.72842 -2.4084,1.1697 -3.8532,1.1697 -1.5881,0 -3.0237,-0.54187 -4.1284,-1.4106 z"
           inkscape:connector-curvature="0"
           style="opacity:0.31837003;fill:url(#linearGradient3082)" />
      </g>
      <g
         id="g8706"
         transform="translate(34.936,27.4)">
        <path
           id="path8708"
           d="m 34.936,165.23 v 6.0312 c 1.9909,1.4149 3.375,4.2938 3.375,7.625 0,3.3369 -1.3786,6.2219 -3.375,7.625 v 5.0938 c 4.7703,-0.67805 8.5,-6.3228 8.5,-13.188 0,-6.8647 -3.7297,-12.509 -8.5,-13.188 z"
           inkscape:connector-curvature="0"
           style="opacity:0.2;fill:#494949;filter:url(#filter8702)" />
        <path
           id="path8710"
           transform="matrix(0.89297,0,0,0.89297,9.099,-4.2719)"
           d="m 33.941,213.73 c 0,3.5147 -3.1658,6.364 -7.0711,6.364 -3.9052,0 -7.0711,-2.8492 -7.0711,-6.364 0,-3.5147 3.1658,-6.364 7.0711,-6.364 3.9052,0 7.0711,2.8492 7.0711,6.364 z"
           inkscape:connector-curvature="0"
           style="fill:url(#linearGradient8744)" />
        <g
           id="g8712"
           transform="matrix(1.1009,0,0,1.3252,18.021,-72.299)">
          <rect
             id="rect8714"
             ry="4.6429"
             height="20.714001"
             width="7.2653999"
             y="178.42999"
             x="10.173"
             style="fill:url(#linearGradient3084)" />
          <rect
             id="rect8716"
             ry="4.6429"
             transform="matrix(1.1536,0,0,1,-1.8123,0)"
             height="20.714001"
             width="4.2297001"
             y="178.42999"
             x="11.423"
             style="opacity:0.47126004;fill:url(#linearGradient3086);filter:url(#filter8088)" />
        </g>
        <path
           id="path8718"
           d="m 29.235,188.5 v 2.0298 c 1.0875,0.80934 2.4652,1.3073 3.9908,1.3073 1.5205,0 2.8975,-0.50295 3.9908,-1.3073 v -1.789 c -1.0678,0.72842 -2.4084,1.1697 -3.8532,1.1697 -1.5881,0 -3.0237,-0.54187 -4.1284,-1.4106 z"
           inkscape:connector-curvature="0"
           style="opacity:0.31837003;fill:url(#linearGradient8750)" />
      </g>
    </g>
  </g>
  <metadata
     id="metadata97">
    <rdf:RDF>
      <cc:Work>
        <dc:format>image/svg+xml</dc:format>
        <dc:type
           rdf:resource="http://purl.org/dc/dcmitype/StillImage" />
        <cc:license
           rdf:resource="http://creativecommons.org/licenses/publicdomain/" />
        <dc:publisher>
          <cc:Agent
             rdf:about="http://openclipart.org/">
            <dc:title>Openclipart</dc:title>
          </cc:Agent>
        </dc:publisher>
        <dc:title></dc:title>
        <dc:date>2010-11-11T21:40:30</dc:date>
        <dc:description>aniversary, calendar, clip art, clipart, date, </dc:description>
        <dc:source>http://openclipart.org/detail/95161/calendar-sheet-by-rg1024</dc:source>
        <dc:creator>
          <cc:Agent>
            <dc:title>rg1024</dc:title>
          </cc:Agent>
        </dc:creator>
        <dc:subject>
          <rdf:Bag>
            <rdf:li>aniversary</rdf:li>
            <rdf:li>calendar</rdf:li>
            <rdf:li>clip art</rdf:li>
            <rdf:li>clipart</rdf:li>
            <rdf:li>date</rdf:li>
          </rdf:Bag>
        </dc:subject>
      </cc:Work>
      <cc:License
         rdf:about="http://creativecommons.org/licenses/publicdomain/">
        <cc:permits
           rdf:resource="http://creativecommons.org/ns#Reproduction" />
        <cc:permits
           rdf:resource="http://creativecommons.org/ns#Distribution" />
        <cc:permits
           rdf:resource="http://creativecommons.org/ns#DerivativeWorks" />
      </cc:License>
    </rdf:RDF>
  </metadata>
</svg>
