<?xml version="1.0" encoding="utf-8"?>
<!-- Generator: Adobe Illustrator 15.0.1, SVG Export Plug-In . SVG Version: 6.00 Build 0)  -->
<!DOCTYPE svg PUBLIC "-//W3C//DTD SVG 1.1//EN" "http://www.w3.org/Graphics/SVG/1.1/DTD/svg11.dtd">
<svg version="1.1"
	 id="svg2" inkscape:export-ydpi="90" inkscape:export-xdpi="90" sodipodi:docname="ristretto.svg" inkscape:version="0.45+devel" sodipodi:version="0.32" xmlns:dc="http://purl.org/dc/elements/1.1/" xmlns:cc="http://creativecommons.org/ns#" xmlns:rdf="http://www.w3.org/1999/02/22-rdf-syntax-ns#" xmlns:svg="http://www.w3.org/2000/svg" xmlns:sodipodi="http://sodipodi.sourceforge.net/DTD/sodipodi-0.dtd" xmlns:inkscape="http://www.inkscape.org/namespaces/inkscape" inkscape:export-filename="/media/backup/Projekte/Icons/Tango/ristretto/48x48/ristretto.png" inkscape:output_extension="org.inkscape.output.svg.inkscape"
	 xmlns="http://www.w3.org/2000/svg" xmlns:xlink="http://www.w3.org/1999/xlink" x="0px" y="0px" width="272.906px"
	 height="204.751px" viewBox="-159.406 -40.921 272.906 204.751" enable-background="new -159.406 -40.921 272.906 204.751"
	 xml:space="preserve">
<sodipodi:namedview  id="base" inkscape:window-width="1278" inkscape:pageshadow="2" inkscape:pageopacity="0.0" inkscape:window-height="973" showborder="true" inkscape:cy="26.040578" inkscape:cx="19.92718" inkscape:zoom="17.333334" showgrid="true" pagecolor="#ffffff" bordercolor="#666666" borderopacity="1.0" objecttolerance="10.0" gridtolerance="10000" guidetolerance="10.0" inkscape:current-layer="svg2" inkscape:window-y="0" inkscape:window-x="0" inkscape:showpageshadow="false" inkscape:snap-bbox="true" inkscape:snap-nodes="false">
	<inkscape:grid  type="xygrid" visible="true" enabled="true" id="grid5476"></inkscape:grid>
</sodipodi:namedview>
<defs>
	
	
		<inkscape:perspective  id="perspective100" inkscape:vp_z="700 : 600 : 1" inkscape:vp_y="0 : 1000 : 0" inkscape:vp_x="-50 : 600 : 1" sodipodi:type="inkscape:persp3d" inkscape:persp3d-origin="300 : 400 : 1">
		</inkscape:perspective>
	
		<inkscape:perspective  id="perspective99" inkscape:vp_z="700 : 600 : 1" inkscape:vp_y="0 : 1000 : 0" inkscape:vp_x="-50 : 600 : 1" sodipodi:type="inkscape:persp3d" inkscape:persp3d-origin="300 : 400 : 1">
		</inkscape:perspective>
	
		<inkscape:perspective  id="perspective98" inkscape:vp_z="700 : 600 : 1" inkscape:vp_y="0 : 1000 : 0" inkscape:vp_x="-50 : 600 : 1" sodipodi:type="inkscape:persp3d" inkscape:persp3d-origin="300 : 400 : 1">
		</inkscape:perspective>
</defs>
<radialGradient id="path7066_1_" cx="-286.7002" cy="185.2852" r="5.3394" gradientTransform="matrix(7.8442 0 0 -3.9221 2320.5483 866.7572)" gradientUnits="userSpaceOnUse">
	<stop  offset="0" style="stop-color:#000000"/>
	<stop  offset="1" style="stop-color:#000000;stop-opacity:0"/>
</radialGradient>
<path id="path7066" sodipodi:ry="0.57112467" sodipodi:rx="1.0198655" sodipodi:cy="42.696701" sodipodi:cx="37.408669" sodipodi:type="arc" opacity="0.3" fill="url(#path7066_1_)" enable-background="new    " d="
	M113.5,140.051c0,11.564-18.752,20.939-41.88,20.939c-23.127,0-41.879-9.375-41.879-20.939c0-11.563,18.752-20.94,41.879-20.94
	C94.748,119.11,113.5,128.487,113.5,140.051z"/>
<radialGradient id="path6910_1_" cx="-48.4424" cy="-560.498" r="104.4441" gradientTransform="matrix(1.1028 0 0 -0.4261 41.2862 -122.3341)" gradientUnits="userSpaceOnUse">
	<stop  offset="0" style="stop-color:#000000"/>
	<stop  offset="1" style="stop-color:#000000;stop-opacity:0"/>
</radialGradient>
<path id="path6910" sodipodi:ry="6.2823715" sodipodi:rx="19.94857" sodipodi:cy="41.309681" sodipodi:cx="22.967371" sodipodi:type="arc" opacity="0.6" fill="url(#path6910_1_)" enable-background="new    " d="
	M103.03,116.493c0.021,24.575-51.526,44.502-115.132,44.508c-63.606,0.01-115.184-19.907-115.205-44.477c0-0.011,0-0.021,0-0.031
	c-0.021-24.573,51.526-44.501,115.132-44.511c63.607-0.006,115.184,19.911,115.205,44.481
	C103.03,116.473,103.03,116.483,103.03,116.493z"/>
<radialGradient id="path6380_1_" cx="-95.6807" cy="-431.0918" r="80.0942" gradientTransform="matrix(1.242 0 0 -0.4903 90.9911 -105.3233)" gradientUnits="userSpaceOnUse">
	<stop  offset="0" style="stop-color:#BABDB6"/>
	<stop  offset="1" style="stop-color:#FFFFFF"/>
</radialGradient>
<path id="path6380" sodipodi:ry="5.9560146" sodipodi:rx="15.297982" sodipodi:cy="39.59631" sodipodi:cx="20.030159" sodipodi:type="arc" fill="url(#path6380_1_)" d="
	M71.62,106.023c0.011,21.687-44.507,39.268-99.438,39.272c-54.934,0.005-99.476-17.565-99.489-39.252c0-0.011,0-0.011,0-0.021
	c-0.013-21.686,44.507-39.266,99.438-39.271c54.931-0.005,99.479,17.565,99.489,39.252C71.62,106.013,71.62,106.019,71.62,106.023z"
	/>
<radialGradient id="path6639_1_" cx="-52.23" cy="-600.6611" r="57.6895" gradientTransform="matrix(1.0871 0 0 -0.4033 38.3042 -128.392)" gradientUnits="userSpaceOnUse">
	<stop  offset="0" style="stop-color:#000000"/>
	<stop  offset="1" style="stop-color:#000000;stop-opacity:0"/>
</radialGradient>
<path id="path6639" sodipodi:ry="3.0576923" sodipodi:rx="11.01923" sodipodi:cy="40.21154" sodipodi:cx="19.673077" sodipodi:type="arc" opacity="0.5" fill="url(#path6639_1_)" enable-background="new    " d="
	M40.211,113.876c0,11.564-26.952,20.939-60.202,20.939c-33.247,0-60.201-9.375-60.201-20.939c0-11.563,26.954-20.94,60.201-20.94
	C13.259,92.936,40.211,102.313,40.211,113.876z"/>
<linearGradient id="path6505_1_" gradientUnits="userSpaceOnUse" x1="-140.6318" y1="-36.4927" x2="12.244" y2="-151.8142" gradientTransform="matrix(1 0 0 -0.9286 5 21.0346)">
	<stop  offset="0" style="stop-color:#000000"/>
	<stop  offset="1" style="stop-color:#FFFFFF;stop-opacity:0"/>
</linearGradient>
<path id="path6505" sodipodi:nodetypes="cscc" opacity="0.23" fill="url(#path6505_1_)" enable-background="new    " d="
	M-36.682,71.997c-47.927,1.835-85.39,17.132-85.39,35.663c0,14.365,22.479,26.675,54.895,32.385
	C14.936,129.913-190.381,120.782-36.682,71.997z"/>
<path id="path6382" sodipodi:ry="5.9560146" sodipodi:rx="15.297982" sodipodi:cy="39.59631" sodipodi:cx="20.030159" sodipodi:type="arc" fill="none" stroke="#FFFFFF" stroke-width="0.8215" stroke-linecap="round" stroke-linejoin="round" d="
	M63.768,103.406c0.011,21.686-42.165,39.267-94.205,39.272c-52.04,0.005-94.239-17.566-94.251-39.252c0-0.011,0-0.011,0-0.021
	c-0.013-21.686,42.163-39.267,94.205-39.271C21.557,64.13,63.758,81.7,63.768,103.387C63.768,103.396,63.768,103.4,63.768,103.406z"
	/>
<g id="layer1">
</g>
<path id="use6711" sodipodi:nodetypes="csc" fill="none" stroke="#888A85" stroke-width="5" stroke-linecap="round" d="
	M44.884,19.046c0-24.566,39.824-20.935,39.824-5.222c0,52.503-50.979,46.316-73.289,76.495"/>
<path id="path6384" sodipodi:ry="5.9560146" sodipodi:rx="15.297982" sodipodi:cy="39.59631" sodipodi:cx="20.030159" sodipodi:type="arc" fill="none" stroke="#888A85" stroke-width="0.7642" stroke-linecap="round" stroke-linejoin="round" d="
	M74.238,106.023c0.015,23.128-45.678,41.885-102.056,41.89s-102.091-18.741-102.106-41.869c0-0.011,0-0.011,0-0.021
	c-0.016-23.127,45.678-41.884,102.055-41.889S74.223,82.876,74.238,106.004C74.238,106.009,74.238,106.013,74.238,106.023z"/>
<radialGradient id="use6713_1_" cx="-337.228" cy="302.4658" r="7.5" gradientUnits="userSpaceOnUse">
	<stop  offset="0" style="stop-color:#FFFFFF"/>
	<stop  offset="0.2679" style="stop-color:#FFFFFF"/>
	<stop  offset="1" style="stop-color:#BABDB6"/>
</radialGradient>
<path id="use6713" sodipodi:nodetypes="csc" fill="none" stroke="url(#use6713_1_)" stroke-width="3" stroke-linecap="round" d="
	M44.884,19.046c0-24.566,39.824-20.935,39.824-5.222c0,52.503-50.979,46.316-73.289,76.495"/>
<path id="use6715" sodipodi:nodetypes="csc" fill="none" stroke="#EEEEEC" stroke-linecap="round" d="M44.884,19.046
	c0-24.566,39.824-20.935,39.824-5.222c0,52.503-50.979,46.316-73.289,76.495"/>
<radialGradient id="path6649_1_" cx="-125.0244" cy="129.252" r="94.3909" gradientTransform="matrix(1.3073 0 0 -1.6965 114.2446 250.074)" gradientUnits="userSpaceOnUse">
	<stop  offset="0" style="stop-color:#FFFFFF"/>
	<stop  offset="1" style="stop-color:#D3D7CF"/>
</radialGradient>
<path id="path6649" fill="url(#path6649_1_)" d="M-27.843-40.554c-50.57,0-91.611,17.029-91.611,37.953
	c0,0,0.494,70.805,42.371,103.226c-0.218,0.89-0.328,1.866-0.328,2.781c0,12.913,22.207,23.394,49.568,23.394
	s49.568-10.48,49.568-23.394c0-0.858-0.133-1.779-0.327-2.618C63.533,68.419,63.768-2.601,63.768-2.601
	C63.768-23.525,22.728-40.554-27.843-40.554z"/>
<linearGradient id="path7020_1_" gradientUnits="userSpaceOnUse" x1="-182.2251" y1="-60.3003" x2="-59.9674" y2="-16.3067" gradientTransform="matrix(1 0 0 -1 4 42)">
	<stop  offset="0" style="stop-color:#000000"/>
	<stop  offset="1" style="stop-color:#000000;stop-opacity:0"/>
</linearGradient>
<path id="path7020" sodipodi:nodetypes="cccccc" fill="url(#path7020_1_)" d="M-61.379-5.054
	c-21.944,5.243-23.618,65.333-46.951,48.259c10.156,31.931,32.225,70.339,79.669,70.671c9.619-55.811-62.067-36.767-32.881-104.861
	l0.491-14.069C-61.156-5.029-61.275-5.08-61.379-5.054z"/>
<linearGradient id="path6663_1_" gradientUnits="userSpaceOnUse" x1="17.1772" y1="-80.7837" x2="-15.4402" y2="-70.7166" gradientTransform="matrix(1 0 0 -1 5 41)">
	<stop  offset="0" style="stop-color:#000000"/>
	<stop  offset="1" style="stop-color:#FFFFFF;stop-opacity:0"/>
</linearGradient>
<path id="path6663" opacity="0.5" fill="url(#path6663_1_)" enable-background="new    " d="M-73.976,98.171
	c-0.628,1.417-0.981,2.919-0.981,4.418c0,12.013,21.108,21.757,47.114,21.757c26.006,0,47.115-9.744,47.115-21.757
	c0-1.499-0.353-3.001-0.981-4.418c-11.82,9.31-26.906,15.275-46.133,15.296C-47.111,113.487-62.146,107.506-73.976,98.171z"/>
<linearGradient id="path6425_1_" gradientUnits="userSpaceOnUse" x1="-121.0249" y1="28.0498" x2="54.941" y2="-43.7838" gradientTransform="matrix(0.9891 0 0 -1 0.9326 41)">
	<stop  offset="0" style="stop-color:#FFFFFF"/>
	<stop  offset="1" style="stop-color:#FFFFFF;stop-opacity:0"/>
</linearGradient>
<path id="path6425" sodipodi:nodetypes="ccccc" fill="url(#path6425_1_)" d="M-59.886-32.702
	c-33.23,5.141-57.252,20.725-56.95,33.658c0,0,6.82,112.347,88.099,112.919c9.619-55.811-62.065-36.757-32.88-104.854
	L-59.886-32.702z"/>
<linearGradient id="path6339_1_" gradientUnits="userSpaceOnUse" x1="-76.1304" y1="-43.5234" x2="102.8311" y2="-43.5234" gradientTransform="matrix(0.8776 0 0 -0.7581 -39.5582 -34.288)">
	<stop  offset="0" style="stop-color:#BABDB6"/>
	<stop  offset="1" style="stop-color:#FFFFFF"/>
</linearGradient>
<path id="path6339" sodipodi:ry="7.9141564" sodipodi:rx="17.092945" sodipodi:cy="19.525354" sodipodi:cx="21.172407" sodipodi:type="arc" fill="url(#path6339_1_)" d="
	M50.682-1.292c0.015,17.346-35.132,31.415-78.499,31.42s-78.534-14.051-78.549-31.399c0-0.005,0-0.013,0-0.021
	c-0.016-17.346,35.131-31.415,78.498-31.42c43.368-0.005,78.535,14.051,78.55,31.399C50.682-1.307,50.682-1.3,50.682-1.292z"/>
<radialGradient id="path6342_1_" cx="177.6563" cy="528.9697" r="78.5198" gradientTransform="matrix(0.0184 0.5342 1.2706 -0.0748 -728.4366 -40.9329)" gradientUnits="userSpaceOnUse">
	<stop  offset="0" style="stop-color:#8E5801"/>
	<stop  offset="0.5" style="stop-color:#543400"/>
	<stop  offset="1" style="stop-color:#E9B96E"/>
</radialGradient>
<path id="path6342" fill="url(#path6342_1_)" stroke="#8F5902" stroke-width="1" stroke-linecap="round" stroke-linejoin="round" d="
	M-27.843,1.326c-26.236,0-48.937,5.314-60.201,13.087C-76.78,22.186-54.079,27.5-27.843,27.5s48.935-5.314,60.203-13.087
	C21.092,6.64-1.607,1.326-27.843,1.326z"/>
<path id="path6347" sodipodi:ry="7.9141564" sodipodi:rx="17.092945" sodipodi:cy="19.525354" sodipodi:cx="21.172407" sodipodi:type="arc" fill="none" stroke="#FFFFFF" stroke-width="1.1587" stroke-linecap="round" stroke-linejoin="round" d="
	M53.299-1.292C53.313,17.5,16.997,32.74-27.815,32.745c-44.813,0.008-81.154-15.221-81.169-34.014c0-0.008,0-0.016,0-0.023
	C-109-20.084-72.683-35.324-27.871-35.33c44.811-0.007,81.154,15.222,81.17,34.015C53.299-1.307,53.299-1.3,53.299-1.292z"/>
<radialGradient id="path6411_1_" cx="-345.2319" cy="312.2393" r="12" gradientUnits="userSpaceOnUse">
	<stop  offset="0" style="stop-color:#F1D09D"/>
	<stop  offset="1" style="stop-color:#FFFFFF;stop-opacity:0.2841"/>
</radialGradient>
<path id="path6411" sodipodi:nodetypes="ccc" fill="none" stroke="url(#path6411_1_)" stroke-width="1" stroke-linecap="round" stroke-linejoin="round" d="
	M11.419,11.795C4.073,8.917-9.367,6.561-27.843,6.561c-18.475,0-31.915,2.356-39.261,5.235"/>
<radialGradient id="path6408_1_" cx="-348.8286" cy="284.4326" r="17" gradientUnits="userSpaceOnUse">
	<stop  offset="0" style="stop-color:#FFFFFF;stop-opacity:0.2"/>
	<stop  offset="1" style="stop-color:#FFFFFF"/>
</radialGradient>
<path id="path6408" sodipodi:nodetypes="cczcc" fill="none" stroke="url(#path6408_1_)" stroke-linecap="round" stroke-linejoin="round" d="
	M-27.843-35.319c-28.449,1.792-72.931,1.48-86.376,32.537c0,0,1.756,114.117,86.376,114.04
	c84.618-0.075,86.376-114.04,86.376-114.04C47.803-33.676-0.799-33.982-27.843-35.319z"/>
<radialGradient id="path6900_1_" cx="-357.1519" cy="278.6846" r="9" gradientUnits="userSpaceOnUse">
	<stop  offset="0" style="stop-color:#FFFFFF"/>
	<stop  offset="1" style="stop-color:#FFFFFF;stop-opacity:0"/>
</radialGradient>
<path id="path6900" sodipodi:nodetypes="css" fill="none" stroke="url(#path6900_1_)" stroke-linecap="round" stroke-linejoin="round" d="
	M-72.339,100.788c0,11.56,19.935,20.94,44.496,20.94c24.56,0,44.497-9.381,44.497-20.94"/>
<path id="path6695" fill="none" stroke="#888A85" stroke-width="1.0626" stroke-linecap="round" stroke-linejoin="round" d="
	M-27.843-40.39c-50.478,0-91.447,17.011-91.447,37.917c0,0,0.493,70.737,42.293,103.123c-0.214,0.885-0.324,1.866-0.324,2.776
	c0,12.903,22.166,23.373,49.478,23.373c27.31,0,49.477-10.47,49.477-23.373c0-0.858-0.133-1.778-0.322-2.612
	C63.369,68.479,63.604-2.473,63.604-2.473C63.604-23.379,22.635-40.39-27.843-40.39z"/>
<path id="path7043" fill="#EEEEEC" stroke="#888A85" stroke-linecap="round" d="M76.855,95.554l-28.792,11.519v34.549l28.792,11.517
	l28.792-17.273v-28.792L76.855,95.554z"/>
<path id="rect7037" sodipodi:nodetypes="ccccc" opacity="0.6" fill="#FFFFFF" enable-background="new    " d="M76.855,119.11
	l-26.174-10.47v31.41l26.174,10.47V119.11z"/>
<path id="path7039" sodipodi:nodetypes="ccccc" fill="#FFFFFF" d="M76.855,119.11l26.175-10.47l-26.175-10.47l-26.174,10.47
	L76.855,119.11z"/>
<path id="path2391" d="M-48.728,108.778c0,30.088-24.648,54.479-55.053,54.479c-30.404,0-55.052-24.393-55.052-54.479
	c0-30.088,24.649-54.479,55.053-54.479c29.605,0,53.91,23.168,55.014,52.446"/>
<g id="path4347">
	<path d="M-49.301,109.351c-0.001,30.088-24.648,54.479-55.054,54.479c-30.404,0-55.052-24.392-55.052-54.479
		c0-30.088,24.648-54.479,55.053-54.479c29.604,0,53.909,23.17,55.013,52.445"/>
</g>
<path id="path3368" fill="#0081F9" d="M-58.478,108.935c0,24.705-20.026,44.731-44.729,44.731
	c-24.704,0-44.731-20.026-44.731-44.731c0-24.702,20.027-44.729,44.731-44.729c24.054,0,43.8,19.021,44.698,43.062"/>
<g enable-background="new    ">
	<path fill="#BCECFC" d="M-125.815,135.731V84.776h6.743v50.955H-125.815z"/>
	<path fill="#BCECFC" d="M-107.185,135.731V84.776h19.222c3.382,0,5.964,0.163,7.75,0.484c2.503,0.419,4.599,1.213,6.291,2.381
		c1.691,1.171,3.053,2.811,4.085,4.919c1.03,2.11,1.547,4.427,1.547,6.951c0,4.334-1.379,8.002-4.136,11.002
		c-2.758,3-7.74,4.5-14.946,4.5h-13.068v20.717L-107.185,135.731L-107.185,135.731z M-100.442,109.003h13.174
		c4.355,0,7.448-0.813,9.279-2.433c1.83-1.623,2.746-3.905,2.746-6.85c0-2.132-0.539-3.957-1.617-5.473
		c-1.077-1.519-2.497-2.521-4.257-3.006c-1.136-0.302-3.233-0.452-6.292-0.452h-13.034L-100.442,109.003L-100.442,109.003z"/>
</g>
</svg>
