<?xml version="1.0" encoding="UTF-8" standalone="no"?>
<!-- Created with Inkscape (http://www.inkscape.org/) -->

<svg
   xmlns:dc="http://purl.org/dc/elements/1.1/"
   xmlns:cc="http://creativecommons.org/ns#"
   xmlns:rdf="http://www.w3.org/1999/02/22-rdf-syntax-ns#"
   xmlns:svg="http://www.w3.org/2000/svg"
   xmlns="http://www.w3.org/2000/svg"
   xmlns:sodipodi="http://sodipodi.sourceforge.net/DTD/sodipodi-0.dtd"
   xmlns:inkscape="http://www.inkscape.org/namespaces/inkscape"
   width="640px"
   height="480px"
   id="svg3000"
   version="1.1"
   inkscape:version="0.48.2 r9819"
   sodipodi:docname="deaduseful-icon-large.svg"
   inkscape:export-filename="C:\Users\User\Dropbox\My Documents\Media\DeadUseful\deaduseful-icon-large.png"
   inkscape:export-xdpi="90"
   inkscape:export-ydpi="90">
  <defs
     id="defs3002" />
  <sodipodi:namedview
     id="base"
     pagecolor="#ffffff"
     bordercolor="#666666"
     borderopacity="1.0"
     inkscape:pageopacity="0.0"
     inkscape:pageshadow="2"
     inkscape:zoom="0.77472527"
     inkscape:cx="318.25443"
     inkscape:cy="240"
     inkscape:current-layer="layer1"
     inkscape:document-units="px"
     showgrid="false"
     inkscape:window-width="1366"
     inkscape:window-height="706"
     inkscape:window-x="-8"
     inkscape:window-y="-8"
     inkscape:window-maximized="1" />
  <metadata
     id="metadata3005">
    <rdf:RDF>
      <cc:Work
         rdf:about="">
        <dc:format>image/svg+xml</dc:format>
        <dc:type
           rdf:resource="http://purl.org/dc/dcmitype/StillImage" />
        <dc:title></dc:title>
      </cc:Work>
    </rdf:RDF>
  </metadata>
  <g
     id="layer1"
     inkscape:label="Layer 1"
     inkscape:groupmode="layer">
    <path
       style="fill:#aa0000;fill-opacity:1;opacity:1"
       d="m 354.71908,477.31448 -2.5015,-16.39635 -2.5015,-16.25094 -4.7742,-31.25708 -3.93494,-19.57824 c -0.36906,-1.83527 4.45347,-9.17881 26.82579,-43.60448 23.33742,-35.91071 43.16977,-67.40524 43.16977,-68.55523 0,-0.72063 -9.42747,-12.77016 -20.94994,-26.7762 -11.52246,-14.00618 -24.0031,-29.24225 -27.73472,-33.85798 -3.73165,-4.61582 -7.36831,-8.39228 -8.08138,-8.39228 -1.17511,0 -19.11919,8.3217 -50.58263,23.45798 -6.41674,3.08694 -11.96697,6.39477 -12.33373,7.35063 -0.90564,2.36014 2.00975,17.35157 3.86884,19.89402 1.04866,1.4341 6.88061,2.94145 19.50003,5.0402 l 18.00411,2.99416 5.07193,-3.10911 c 2.78966,-1.71009 7.137,-4.85631 9.66078,-6.9917 2.52388,-2.13539 5.1973,-3.50652 5.94103,-3.04679 2.69727,1.66728 1.19213,5.14124 -3.73965,8.6311 -5.22417,3.69684 -5.81566,6.11708 -1.68348,6.88777 3.11664,0.58168 5.52464,2.57523 5.52464,4.57423 0,0.97492 -16.46454,7.07304 -42.64194,15.79379 l -42.64206,14.20554 -10.23997,11.88205 c -9.90789,11.49687 -38.30924,50.18614 -38.30186,52.17638 9e-5,0.53932 3.92784,5.76422 8.72404,11.61145 l 8.72055,10.6313 0.0277,8.23406 c 0.0178,4.52875 -0.31016,8.57551 -0.72799,8.99308 l -0.83844,31.28672 c 1.0423,0.77677 1.63933,6.57282 1.87614,18.21282 l 0.34697,17.07318 58.4722,0.32487 c 49.64643,0.27611 58.47228,0.0552 58.47228,-1.43913 z M 253.92935,316.24415 c 3.84125,-4.24453 6.98405,-8.52589 6.98405,-9.51372 0,-2.02943 -50.93641,-55.31172 -52.87649,-55.31172 -2.75672,0 -27.17101,20.79129 -27.17101,23.13871 0,2.53151 9.17769,10.55105 27.51632,24.0448 24.77059,18.22618 35.18228,25.35951 37.0147,25.35951 0.85131,-2e-4 4.69127,-3.47294 8.53243,-7.71758 z m 28.872,-18.94192 c 8.73962,-3.09281 11.32184,-4.54301 11.54806,-6.48513 0.27335,-2.34782 -6.39162,-12.42163 -36.36721,-54.96752 -6.0836,-8.6346 -11.63476,-15.69944 -12.33596,-15.69944 -0.70132,-2e-4 -6.98046,4.75274 -13.95385,10.5616 -6.97337,5.80886 -14.08156,11.66541 -15.79627,13.01463 l -3.11722,2.45289 7.4433,7.93543 c 29.02056,30.93875 45.83888,47.32846 48.48791,47.25244 1.55898,-0.0461 7.90018,-1.87402 14.09124,-4.0649 z m 37.43153,-12.25378 c 15.47167,-5.07091 16.65505,-5.6004 15.37538,-6.87996 -1.41188,-1.41227 -36.52615,-6.63385 -37.57259,-5.5875 -2.03966,2.03975 3.72189,17.85362 6.36981,17.48382 0.49975,-0.0737 7.62241,-2.32729 15.8274,-5.01636 z m -31.81189,-20.80967 c -0.007,-1.20382 -1.1393,-6.90452 -2.52101,-12.66839 -1.98121,-8.26471 -2.19365,-10.8635 -1.00472,-12.29601 0.82922,-0.99904 6.74759,-4.26515 13.15228,-7.25803 6.40468,-2.99298 11.64487,-5.93477 11.64478,-6.53723 0,-1.97029 -25.22273,-34.71043 -27.06794,-35.13524 -0.98836,-0.22734 -3.93007,1.46087 -6.53677,3.75215 -2.6066,2.29139 -8.74946,7.45388 -13.65076,11.47231 -4.90122,4.01823 -9.55035,8.07594 -10.33126,9.01682 -1.40775,1.6962 0.72707,5.09164 18.83334,29.95453 2.5048,3.4395 7.04286,9.75492 10.08451,14.03435 5.75309,8.09417 7.41239,9.3649 7.39755,5.66474 z m 45.97354,-49.16113 c 30.99387,-10.64005 -6.5745,-36.12519 -14.59284,-45.96508 -2.35085,-2.88518 -4.74843,-5.24588 -5.32789,-5.24588 -1.72455,0 -26.04405,20.1625 -26.04405,21.59217 0,2.63715 27.26941,37.23447 29.23068,37.08556 0.77676,-0.0552 8.30721,-3.4191 16.7341,-7.46677 z"
       id="path3008-1-4"
       inkscape:connector-curvature="0"
       sodipodi:nodetypes="ccccsssssssssscsssscsscscscsccscssccsssssccsssscsccccccccsssscssssscsccscsc" />
    <path
       style="fill:#4d4d4d;fill-opacity:1;opacity:1"
       d="m 84.012105,435.87404 c 9.63069,-4.46838 24.545745,-11.39667 33.144715,-15.39594 41.92898,-20.94001 48.7897,-18.59495 85.12268,-45.33203 10.25717,-7.64219 12.9479,-10.56263 24.45463,-26.54159 7.11115,-9.87516 13.18293,-18.89188 13.49292,-20.03725 0.35434,-1.30874 -0.75837,-2.92561 -2.99398,-4.35083 -1.95666,-1.24764 -8.47787,-5.79802 -14.49159,-10.11214 -6.01364,-4.31414 -11.92337,-7.81798 -13.13272,-7.78631 -1.20932,0.0277 -12.32987,8.22404 -24.71221,18.205 -25.98028,22.56054 -59.00767,37.94726 -72.11735,44.48596 l -79.146688,22.50689 -0.349721,16.71554 9.53396,11.73302 c 13.451138,16.55337 20.558612,24.27002 22.237793,24.14317 0.796083,-0.0552 9.327051,-3.76521 18.957851,-8.23369 z"
       id="path3008-1-0"
       inkscape:connector-curvature="0"
       sodipodi:nodetypes="sccsscccccccscss" />
    <path
       sodipodi:nodetypes="ssscsssssssssccssssssssccsssss"
       inkscape:connector-curvature="0"
       id="path2990"
       d="m 579.06516,230.69334 c 5.87182,-3.60582 11.07812,-6.98949 11.56941,-7.51951 0.51447,-0.55496 27.44381,-20.1726 26.33865,-25.89258 -5.07111,-26.24588 -38.9139,-45.60343 -43.26815,-69.33871 L 568.89737,101.734 553.13458,77.524749 C 534.59393,49.049129 533.49069,47.651026 517.52683,32.399143 510.78917,25.961957 500.6856,16.250842 495.07433,10.818942 489.46307,5.3870645 484.49945,0.9568872 484.04407,0.97419284 c -0.45555,0.0178179 -3.56091,1.93261916 -6.9012,4.25631906 -3.34033,2.323789 -14.03173,9.4028211 -23.75885,15.7312071 -9.72715,6.328295 -18.14391,12.102834 -18.70383,12.83221 -0.97493,1.269615 0.45188,3.723809 19.62886,33.758406 12.68533,19.867432 14.29077,22.300177 13.43117,24.267052 l -1.34463,3.076639 -31.35252,24.585304 c -18.97755,16.36717 -35.88983,30.80979 -37.58282,32.0947 -1.69305,1.28481 -7.90227,6.65539 -13.79819,11.93459 -5.89594,5.2792 -16.01239,14.01614 -22.48093,19.41544 -6.46866,5.39922 -11.87027,10.52831 -12.00382,11.39805 -0.26782,1.74201 27.9673,34.03376 30.13694,34.46724 0.74363,0.14811 2.88897,-1.14352 4.76664,-2.87157 1.87771,-1.72794 7.10298,-6.07531 11.61175,-9.66088 4.5087,-3.58558 15.91104,-16.00105 28.46338,-22.96347 l 45.24219,-25.09482 23.25387,-15.7256 c 18.99678,4.49884 28.99882,21.2138 33.81306,26.05842 2.65411,2.67113 12.69399,16.87068 22.3104,31.55474 9.61644,14.68422 17.96341,26.80243 18.54886,26.92971 0.58534,0.12784 5.86869,-2.71891 11.74076,-6.32454 z"
       style="fill:#4d4d4d;fill-opacity:1;opacity:1" />
    <path
       style="fill:#aa0000;fill-opacity:0.99607842999999996;opacity:1"
       d="m 137.28757,340.3255 c 13.3107,-6.72875 12.9246,-6.06684 9.2435,-15.84671 -6.64987,-17.66709 -8.47168,-28.30646 -8.41794,-49.16032 0.10399,-40.16744 12.35785,-72.73234 37.97608,-100.91831 21.94998,-24.14999 50.44373,-39.69216 84.55415,-46.12087 17.68154,-3.33229 44.38815,-2.01723 62.86162,3.09558 16.70253,4.62263 29.27162,10.18189 41.3637,18.29464 8.68843,5.8294 8.7315,5.84236 11.68765,3.5255 13.69181,-10.73069 17.12352,-13.82923 17.1202,-15.45815 -0.009,-4.37772 -33.24926,-23.26876 -51.78091,-29.42771 -24.40888,-8.11241 -51.96378,-11.118244 -75.8475,-8.27393 -12.50558,1.48922 -33.93274,6.39864 -42.00768,9.6249 -13.16224,5.25861 -31.37876,15.47831 -43.09079,24.17419 -49.10538,36.4599 -76.15104,97.18713 -70.04988,157.28706 1.97037,19.40956 12.03003,54.44025 15.53361,54.09254 0.81082,-0.0829 5.69482,-2.28008 10.85419,-4.88815 z m 267.0336,-197.19634 c 4.14505,200.02878 2.07254,100.01453 0,0 z"
       id="path3008-1-7-1"
       inkscape:connector-curvature="0"
       sodipodi:nodetypes="cssssssscssssscsccc" />
  </g>
</svg>
