<?xml version="1.0" encoding="UTF-8" standalone="no"?>
<!-- Created with Inkscape (http://www.inkscape.org/) -->

<svg
   xmlns:dc="http://purl.org/dc/elements/1.1/"
   xmlns:cc="http://creativecommons.org/ns#"
   xmlns:rdf="http://www.w3.org/1999/02/22-rdf-syntax-ns#"
   xmlns:svg="http://www.w3.org/2000/svg"
   xmlns="http://www.w3.org/2000/svg"
   xmlns:sodipodi="http://sodipodi.sourceforge.net/DTD/sodipodi-0.dtd"
   xmlns:inkscape="http://www.inkscape.org/namespaces/inkscape"
   width="744.09448819"
   height="1052.3622047"
   id="svg2"
   version="1.1"
   inkscape:version="0.48.2 r9819"
   sodipodi:docname="deaduseful-logo.svg"
   inkscape:export-filename="C:\Users\User\Dropbox\My Documents\media\deaduseful-logo.png"
   inkscape:export-xdpi="90"
   inkscape:export-ydpi="90">
  <defs
     id="defs4" />
  <sodipodi:namedview
     id="base"
     pagecolor="#ffffff"
     bordercolor="#666666"
     borderopacity="1.0"
     inkscape:pageopacity="0.0"
     inkscape:pageshadow="2"
     inkscape:zoom="2.3607306"
     inkscape:cx="262"
     inkscape:cy="792.5"
     inkscape:document-units="px"
     inkscape:current-layer="g3023"
     showgrid="false"
     inkscape:window-width="1366"
     inkscape:window-height="706"
     inkscape:window-x="-8"
     inkscape:window-y="-8"
     inkscape:window-maximized="1" />
  <metadata
     id="metadata7">
    <rdf:RDF>
      <cc:Work
         rdf:about="">
        <dc:format>image/svg+xml</dc:format>
        <dc:type
           rdf:resource="http://purl.org/dc/dcmitype/StillImage" />
        <dc:title></dc:title>
      </cc:Work>
    </rdf:RDF>
  </metadata>
  <g
     inkscape:label="Layer 1"
     inkscape:groupmode="layer"
     id="layer1">
    <text
       xml:space="preserve"
       style="font-size:40px;font-style:normal;font-variant:normal;font-weight:normal;font-stretch:normal;text-align:start;line-height:125%;letter-spacing:0px;word-spacing:0px;text-anchor:start;fill:#4d4d4d;fill-opacity:1;stroke:none;font-family:Verdana;-inkscape-font-specification:Verdana"
       x="223.77789"
       y="305.07648"
       id="text2985"
       sodipodi:linespacing="125%"><tspan
         sodipodi:role="line"
         id="tspan2987"
         x="223.77789"
         y="305.07648"
         style="font-size:72px;font-style:italic;font-variant:normal;font-weight:bold;font-stretch:normal;text-align:start;text-anchor:start;fill:#4d4d4d;fill-opacity:1;font-family:Georgia;-inkscape-font-specification:Georgia Bold Italic">dead</tspan></text>
    <g
       id="g3023"
       transform="matrix(1.031438,0,0,1.031438,141.40846,61.474554)">
      <path
         style="fill:#aa0000;fill-opacity:1"
         d="m 74.089015,238.98916 -0.624874,-4.09581 -0.624871,-4.05949 -1.192604,-7.80802 -0.982961,-4.89066 c -0.09213,-0.45845 1.112483,-2.29286 6.701087,-10.89241 5.829704,-8.97051 10.783839,-16.83786 10.783837,-17.12511 6e-6,-0.1801 -2.354991,-3.19 -5.233297,-6.68872 -2.878317,-3.49874 -5.995985,-7.30471 -6.928144,-8.45773 -0.932171,-1.15302 -1.8406,-2.09639 -2.018731,-2.09639 -0.293538,0 -4.775981,2.07876 -12.635557,5.85981 -1.60291,0.77112 -2.989359,1.59742 -3.08098,1.83619 -0.22624,0.58957 0.502043,4.33443 0.966444,4.96953 0.261942,0.35824 1.718777,0.73478 4.871122,1.25905 l 4.497413,0.74794 1.266988,-0.77667 c 0.696845,-0.42717 1.78281,-1.2131 2.413263,-1.74652 0.630449,-0.53342 1.298278,-0.87592 1.48407,-0.76109 0.673776,0.4165 0.297795,1.28429 -0.934176,2.15605 -1.304985,0.92347 -1.45275,1.52806 -0.420533,1.72057 0.778537,0.14521 1.380065,0.64329 1.380065,1.14264 0,0.24354 -4.112841,1.76686 -10.651975,3.94529 l -10.651986,3.54855 -2.557947,2.96815 c -2.475017,2.87191 -9.56967,12.53651 -9.567821,13.03366 7e-6,0.13468 0.981167,1.43991 2.179269,2.90056 l 2.178396,2.6557 0.0079,2.05688 c 0.0043,1.13128 -0.07754,2.14216 -0.181841,2.24646 l -0.209549,7.81543 c 0.260358,0.19413 0.409507,1.64189 0.468653,4.54957 l 0.0867,4.26487 14.606379,0.0811 c 12.401689,0.0689 14.606384,0.0143 14.60638,-0.35948 z M 48.911714,198.75375 c 0.959535,-1.0603 1.744613,-2.12977 1.74461,-2.37654 2e-6,-0.50696 -12.723926,-13.81687 -13.208572,-13.81687 -0.688613,0 -6.787327,5.19366 -6.787321,5.78006 -6e-6,0.63235 2.292589,2.63564 6.87358,6.00638 6.187702,4.55292 8.78856,6.33482 9.246286,6.33482 0.212773,-5e-5 1.17188,-0.86753 2.131417,-1.92785 z m 7.212236,-4.7317 c 2.18314,-0.7726 2.828197,-1.13484 2.8847,-1.61999 0.06832,-0.58648 -1.59663,-3.10293 -9.084544,-13.73089 -1.519681,-2.15693 -2.906366,-3.92173 -3.081527,-3.92173 -0.17513,-5e-5 -1.743709,1.18723 -3.485667,2.63829 -1.741954,1.45105 -3.517591,2.91402 -3.945909,3.25105 l -0.778684,0.61275 1.859339,1.98226 c 7.249344,7.7285 11.450551,11.82266 12.11229,11.80367 0.389443,-0.0107 1.973451,-0.46812 3.520002,-1.01541 z m 9.350401,-3.06099 c 3.864813,-1.26673 4.160419,-1.39898 3.840783,-1.71862 -0.35271,-0.3528 -9.124253,-1.65715 -9.385658,-1.39576 -0.509509,0.50953 0.929725,4.45984 1.591195,4.36746 0.124923,-0.0179 1.904075,-0.58135 3.95368,-1.25308 z m -7.946622,-5.19827 c -0.0016,-0.30071 -0.284594,-1.72476 -0.62975,-3.16456 -0.494922,-2.06453 -0.547972,-2.71372 -0.25099,-3.07155 0.207111,-0.24956 1.685564,-1.06545 3.285457,-1.81307 1.599883,-0.74764 2.90888,-1.48249 2.908874,-1.63299 2e-6,-0.49219 -6.300645,-8.67068 -6.761581,-8.77679 -0.246903,-0.0568 -0.981731,0.36491 -1.632883,0.93729 -0.651143,0.57237 -2.18563,1.86198 -3.409967,2.86577 -1.224338,1.00377 -2.385679,2.01737 -2.580759,2.25242 -0.351651,0.42371 0.18161,1.27187 4.70457,7.48264 0.625707,0.85919 1.759303,2.43679 2.519109,3.50578 1.437121,2.02194 1.851619,2.33935 1.84792,1.41506 z m 11.484204,-12.28048 c 7.742263,-2.65788 -1.642319,-9.02406 -3.645304,-11.48207 -0.587239,-0.72072 -1.186144,-1.31042 -1.330895,-1.31042 -0.430792,0 -6.50582,5.03658 -6.50582,5.39372 5e-6,0.65877 6.811907,9.30118 7.301819,9.26397 0.194078,-0.0143 2.075164,-0.85407 4.1802,-1.8652 z"
         id="path3008-1-4"
         inkscape:connector-curvature="0"
         sodipodi:nodetypes="ccccsssssssssscsssscsscscscsccscssccsssssccsssscsccccccccsssscssssscsccscsc" />
      <path
         style="fill:#4d4d4d;fill-opacity:1"
         d="m 6.4663282,228.63732 c 2.4057544,-1.11621 6.1315448,-2.84689 8.2795528,-3.84591 10.473882,-5.23082 12.187679,-4.64502 21.263669,-11.32395 2.562256,-1.90903 3.234401,-2.63856 6.108788,-6.6301 1.776362,-2.46682 3.293105,-4.71919 3.37054,-5.00531 0.08847,-0.32692 -0.189479,-0.7308 -0.747911,-1.08683 -0.488779,-0.31166 -2.117778,-1.44834 -3.619993,-2.52602 -1.502205,-1.07767 -2.978464,-1.95293 -3.280555,-1.94503 -0.302108,0.007 -3.080016,2.05436 -6.173131,4.54762 -6.489878,5.63564 -14.740125,9.47924 -18.014922,11.11261 l -19.7708733,5.62223 -0.08741,4.17553 2.3816008,2.93092 c 3.36009315,4.13503 5.1355371,6.06266 5.5549879,6.03098 0.1988701,-0.0143 2.3299211,-0.94057 4.7356817,-2.05678 z"
         id="path3008-1-0"
         inkscape:connector-curvature="0"
         sodipodi:nodetypes="sccsscccccccscss" />
      <path
         sodipodi:nodetypes="ssscsssssssssccssssssssccsssss"
         inkscape:connector-curvature="0"
         id="path2990"
         d="m 130.13072,177.38312 c 1.46679,-0.90073 2.76732,-1.74597 2.89004,-1.87836 0.12856,-0.13874 6.85548,-5.03913 6.57942,-6.46798 -1.26678,-6.55624 -9.72073,-11.39175 -10.80841,-17.32084 l -1.20097,-6.54689 -3.93755,-6.04748 c -4.63146,-7.11322 -4.90703,-7.46246 -8.89481,-11.27238 -1.68308,-1.60802 -4.20696,-4.03386 -5.60866,-5.39074 -1.40169,-1.3569 -2.6416,-2.46355 -2.75535,-2.45923 -0.11379,0.005 -0.88952,0.48278 -1.72394,1.06324 -0.83439,0.58048 -3.50512,2.34882 -5.93496,3.92966 -2.42983,1.58081 -4.532341,3.02329 -4.672226,3.20548 -0.24353,0.31716 0.112811,0.93021 4.903316,8.43286 3.16879,4.96289 3.56984,5.5706 3.35511,6.06191 l -0.33589,0.76854 -7.831871,6.14142 c -4.740594,4.08854 -8.965296,7.6963 -9.388208,8.01727 -0.422923,0.32094 -1.973979,1.66251 -3.446792,2.98127 -1.472803,1.31874 -3.999893,3.50124 -5.615742,4.84997 -1.615862,1.34873 -2.965204,2.62999 -2.998552,2.84723 -0.06678,0.43516 6.986244,8.50166 7.528203,8.60993 0.18582,0.0371 0.721683,-0.28565 1.190729,-0.7173 0.469047,-0.43164 1.774311,-1.51761 2.9006,-2.41329 1.126275,-0.89569 3.974591,-3.99707 7.110161,-5.73628 l 11.301532,-6.26871 5.80881,-3.92826 c 4.7454,1.12382 7.24391,5.29923 8.44651,6.5094 0.66301,0.66726 3.17095,4.21432 5.57314,7.88238 2.40219,3.66812 4.48727,6.69527 4.63352,6.72706 0.14626,0.0319 1.46601,-0.67917 2.93284,-1.57988 z"
         style="fill:#4d4d4d;fill-opacity:1" />
      <path
         style="fill:#aa0000;fill-opacity:0.99607843"
         d="m 19.774569,204.76928 c 3.325,-1.68085 3.22856,-1.5155 2.30902,-3.95853 -1.66115,-4.41322 -2.11624,-7.07095 -2.10282,-12.28025 0.0259,-10.03383 3.087,-18.16856 9.48645,-25.20943 5.483102,-6.03267 12.600852,-9.91511 21.121658,-11.52101 4.416835,-0.83241 11.088154,-0.5039 15.702839,0.77328 4.172297,1.15475 7.312066,2.54344 10.332656,4.57002 2.17038,1.45618 2.181136,1.45942 2.919595,0.88067 3.420206,-2.68054 4.277455,-3.45456 4.276633,-3.86146 -0.0023,-1.09356 -8.305675,-5.81253 -12.934893,-7.35104 -6.097349,-2.02648 -12.980579,-2.77735 -18.946726,-2.06683 -3.1239,0.372 -8.47642,1.59838 -10.49353,2.40429 -3.28793,1.31361 -7.83842,3.86648 -10.76409,6.03872 -12.266532,9.10771 -19.022556,24.27738 -17.498492,39.29036 0.4922,4.84851 3.00511,13.59919 3.88031,13.51234 0.20243,-0.02 1.42257,-0.56957 2.71137,-1.22108 z m 66.705062,-49.2597 c 1.035434,49.96724 0.517715,24.98365 0,0 z"
         id="path3008-1-7-1"
         inkscape:connector-curvature="0"
         sodipodi:nodetypes="cssssssscssssscsccc" />
    </g>
    <text
       xml:space="preserve"
       style="font-size:40px;font-style:normal;font-variant:normal;font-weight:normal;font-stretch:normal;line-height:125%;letter-spacing:0px;word-spacing:0px;fill:#aa0000;fill-opacity:1;stroke:none;font-family:Verdana;-inkscape-font-specification:Verdana"
       x="498.48828"
       y="303.78601"
       id="text2985-1"
       sodipodi:linespacing="125%"><tspan
         sodipodi:role="line"
         id="tspan2987-7"
         x="498.48828"
         y="303.78601"
         style="font-size:72px;font-style:italic;font-variant:normal;font-weight:normal;font-stretch:normal;text-align:center;text-anchor:middle;fill:#aa0000;fill-opacity:1;font-family:Georgia;-inkscape-font-specification:Georgia Italic">useful</tspan></text>
  </g>
</svg>
