<?xml version="1.0" encoding="UTF-8" standalone="no"?>
<!-- Created with Inkscape (http://www.inkscape.org/) -->

<svg
   xmlns:dc="http://purl.org/dc/elements/1.1/"
   xmlns:cc="http://creativecommons.org/ns#"
   xmlns:rdf="http://www.w3.org/1999/02/22-rdf-syntax-ns#"
   xmlns:svg="http://www.w3.org/2000/svg"
   xmlns="http://www.w3.org/2000/svg"
   xmlns:sodipodi="http://sodipodi.sourceforge.net/DTD/sodipodi-0.dtd"
   xmlns:inkscape="http://www.inkscape.org/namespaces/inkscape"
   width="64px"
   height="64px"
   id="svg3005"
   version="1.1"
   inkscape:version="0.48.2 r9819"
   sodipodi:docname="deaduseful-icon.svg"
   inkscape:export-filename="C:\Users\User\Dropbox\My Documents\Media\DeadUseful\apple-touch-icon-52-precomposed.png"
   inkscape:export-xdpi="73.125"
   inkscape:export-ydpi="73.125">
  <defs
     id="defs3007" />
  <sodipodi:namedview
     id="base"
     pagecolor="#ffffff"
     bordercolor="#666666"
     borderopacity="1.0"
     inkscape:pageopacity="0.0"
     inkscape:pageshadow="2"
     inkscape:zoom="2.8284271"
     inkscape:cx="32"
     inkscape:cy="32"
     inkscape:current-layer="layer1"
     showgrid="true"
     inkscape:document-units="px"
     inkscape:grid-bbox="true"
     inkscape:window-width="1366"
     inkscape:window-height="706"
     inkscape:window-x="-8"
     inkscape:window-y="-8"
     inkscape:window-maximized="1" />
  <metadata
     id="metadata3010">
    <rdf:RDF>
      <cc:Work
         rdf:about="">
        <dc:format>image/svg+xml</dc:format>
        <dc:type
           rdf:resource="http://purl.org/dc/dcmitype/StillImage" />
        <dc:title></dc:title>
      </cc:Work>
    </rdf:RDF>
  </metadata>
  <g
     id="layer1"
     inkscape:label="Layer 1"
     inkscape:groupmode="layer">
    <path
       style="fill:#aa0000;fill-opacity:1"
       d="m 35.213419,56.724308 -0.271798,-1.781543 -0.271799,-1.76574 -0.518742,-3.396227 -0.427555,-2.127272 c -0.04007,-0.199409 0.483893,-0.997316 2.914748,-4.737831 2.535725,-3.90187 4.690606,-7.323903 4.690606,-7.448846 3e-6,-0.07834 -1.024342,-1.387543 -2.276309,-2.909368 -1.251971,-1.521835 -2.608051,-3.177304 -3.013509,-3.678829 -0.405463,-0.501525 -0.800599,-0.911859 -0.87808,-0.911859 -0.127679,0 -2.077391,0.90419 -5.496043,2.54882 -0.697211,0.335411 -1.30027,0.694824 -1.340122,0.798681 -0.09841,0.256443 0.218372,1.885331 0.420371,2.161578 0.113936,0.155822 0.74761,0.319605 2.118774,0.547644 l 1.956223,0.325329 0.551097,-0.337824 c 0.303105,-0.185806 0.775463,-0.527659 1.049689,-0.759679 0.274224,-0.232019 0.564707,-0.380995 0.64552,-0.331047 0.29307,0.181163 0.129531,0.558622 -0.406335,0.937809 -0.567625,0.401678 -0.631897,0.664654 -0.182917,0.74839 0.338636,0.06316 0.600282,0.279809 0.600282,0.497009 0,0.105932 -1.788949,0.768525 -4.633252,1.716069 l -4.633256,1.5435 -1.11262,1.291045 c -1.076549,1.249185 -4.162485,5.45296 -4.16168,5.669204 2e-6,0.05858 0.426774,0.626312 0.947908,1.261646 l 0.947529,1.155141 0.0034,0.894671 c 0.0018,0.492071 -0.03373,0.93177 -0.0791,0.977137 l -0.09115,3.399449 c 0.113247,0.08444 0.178122,0.714168 0.203849,1.97891 l 0.03771,1.855076 6.353284,0.03526 c 5.394317,0.02998 6.353285,0.0062 6.353283,-0.156362 z M 24.262141,39.223257 c 0.417365,-0.461195 0.758848,-0.926379 0.758846,-1.033715 10e-7,-0.22051 -5.534479,-6.009874 -5.745284,-6.009874 -0.299523,0 -2.952259,2.259068 -2.952256,2.514132 -3e-6,0.275051 0.997199,1.146415 2.989776,2.612573 2.691442,1.980367 3.822728,2.755434 4.021823,2.755434 0.09255,-2.2e-5 0.509728,-0.377347 0.927095,-0.83855 z m 3.137079,-2.05813 c 0.949593,-0.336055 1.230171,-0.493618 1.254748,-0.704641 0.02972,-0.255099 -0.69448,-1.34967 -3.951472,-5.972476 -0.66101,-0.938192 -1.26417,-1.70582 -1.34036,-1.70582 -0.07618,-2.2e-5 -0.758454,0.516405 -1.516147,1.147567 -0.757692,0.631158 -1.530034,1.267501 -1.716337,1.414097 l -0.338702,0.266526 0.80875,0.862216 c 3.15322,3.361638 4.980603,5.14246 5.268438,5.1342 0.169394,-0.0047 0.858385,-0.203617 1.531082,-0.441669 z m 4.067111,-1.331428 c 1.681064,-0.550985 1.809642,-0.608509 1.670611,-0.747542 -0.153417,-0.153456 -3.968743,-0.720804 -4.082445,-0.607109 -0.22162,0.221629 0.404398,1.939881 0.692115,1.899699 0.05434,-0.0078 0.828209,-0.252868 1.719719,-0.545048 z m -3.456514,-2.261072 c -7.02e-4,-0.130799 -0.123788,-0.750213 -0.273919,-1.376478 -0.215275,-0.898001 -0.23835,-1.180376 -0.109173,-1.336021 0.09009,-0.10855 0.733164,-0.463434 1.429063,-0.788624 0.695895,-0.325198 1.265265,-0.644834 1.265262,-0.710296 1e-6,-0.214086 -2.740568,-3.771454 -2.94106,-3.817609 -0.107394,-0.02471 -0.42702,0.158724 -0.710249,0.40769 -0.283225,0.248962 -0.950675,0.809899 -1.483221,1.246514 -0.532546,0.436606 -1.03769,0.877488 -1.122543,0.979727 -0.152957,0.184299 0.07899,0.553221 2.04633,3.254696 0.272161,0.373719 0.765237,1.059922 1.095728,1.524897 0.625099,0.879475 0.805391,1.017538 0.803782,0.615504 z m 4.995243,-5.341596 c 3.367624,-1.156089 -0.714354,-3.925163 -1.585585,-4.994315 -0.255429,-0.313488 -0.515933,-0.569989 -0.578894,-0.569989 -0.187381,0 -2.829814,2.190744 -2.829814,2.346088 3e-6,0.286543 2.962951,4.0457 3.176047,4.029516 0.08442,-0.0062 0.902626,-0.371493 1.818246,-0.8113 z"
       id="path3008-1-4"
       inkscape:connector-curvature="0"
       sodipodi:nodetypes="ccccsssssssssscsssscsscscscsccscssccsssssccsssscsccccccccsssscssssscsccscsc" />
    <path
       style="fill:#4d4d4d;fill-opacity:1"
       d="m 5.7998259,52.221606 c 1.046422,-0.485513 2.6670156,-1.238301 3.6013268,-1.672843 4.5557863,-2.275232 5.3012303,-2.020427 9.2489813,-4.925536 1.114495,-0.830365 1.406855,-1.147686 2.657117,-2.883872 0.772658,-1.072983 1.43239,-2.052688 1.466071,-2.177141 0.03848,-0.142199 -0.08242,-0.317874 -0.325316,-0.472734 -0.212602,-0.135562 -0.921162,-0.62998 -1.574575,-1.098734 -0.653409,-0.468751 -1.295532,-0.849459 -1.426931,-0.846023 -0.131407,0.003 -1.339704,0.893578 -2.685104,1.978062 -2.822879,2.451314 -6.411459,4.123151 -7.8358857,4.833611 l -8.59966516,2.44548 -0.0380206,1.816215 1.03591626,1.274855 c 1.4615278,1.798596 2.2337853,2.63705 2.4162334,2.623273 0.086502,-0.0062 1.0134366,-0.409117 2.0598613,-0.89463 z"
       id="path3008-1-0"
       inkscape:connector-curvature="0"
       sodipodi:nodetypes="sccsscccccccscss" />
    <path
       sodipodi:nodetypes="ssscsssssssssccssssssssccsssss"
       inkscape:connector-curvature="0"
       id="path2990"
       d="m 59.589677,29.927752 c 0.638003,-0.391787 1.203691,-0.759439 1.257073,-0.817023 0.05592,-0.06035 2.981902,-2.191853 2.861821,-2.813355 -0.551006,-2.851743 -4.228188,-4.955028 -4.701295,-7.533983 L 58.484897,15.915715 56.772195,13.285264 C 54.757667,10.191253 54.637801,10.039346 52.90325,8.3821585 52.171167,7.6827239 51.073367,6.6275652 50.463673,6.0373679 49.853984,5.4471621 49.314665,4.9658065 49.26519,4.9676857 c -0.0495,0.0022 -0.386914,0.2099928 -0.749857,0.4624736 -0.362931,0.2524892 -1.524608,1.0216575 -2.581507,1.70927 -1.056894,0.687599 -1.971417,1.3150294 -2.03226,1.3942757 -0.10593,0.1379539 0.04907,0.4046101 2.132774,3.668011 1.378317,2.15869 1.552761,2.423023 1.459361,2.636726 l -0.146101,0.33429 -3.406601,2.67131 c -2.061998,1.778378 -3.899602,3.347632 -4.083554,3.487243 -0.183957,0.139598 -0.858615,0.723136 -1.499238,1.296752 -0.64062,0.573608 -1.739819,1.522922 -2.442659,2.109574 -0.702846,0.586652 -1.289764,1.143957 -1.30427,1.23845 -0.02905,0.18928 3.038781,3.697935 3.274516,3.74503 0.08083,0.01614 0.313907,-0.124249 0.517926,-0.312002 0.20402,-0.187749 0.771766,-0.660109 1.261664,-1.0497 0.489891,-0.389595 1.728813,-1.738591 3.092681,-2.495089 l 4.915786,-2.726678 2.526638,-1.708661 c 2.064087,0.488824 3.150856,2.304987 3.673947,2.831371 0.288386,0.290235 1.379258,1.833087 2.42413,3.42857 1.044872,1.595509 1.951811,2.912217 2.015425,2.926045 0.06362,0.01387 0.637661,-0.295417 1.275686,-0.687195 z"
       style="fill:#4d4d4d;fill-opacity:1" />
    <path
       style="fill:#aa0000;fill-opacity:0.99607843"
       d="m 11.588462,41.83981 c 1.446263,-0.731113 1.404316,-0.659192 1.004347,-1.721828 -0.722544,-1.919602 -0.920494,-3.075625 -0.914656,-5.341495 0.01126,-4.364379 1.342741,-7.902713 4.126286,-10.965254 2.384965,-2.624008 5.480948,-4.31274 9.187211,-5.011252 1.921175,-0.36207 4.822974,-0.21918 6.830207,0.336351 1.814809,0.502277 3.180503,1.106311 4.494358,1.987805 0.944042,0.633389 0.94872,0.634799 1.269925,0.383061 1.487675,-1.165944 1.860549,-1.502616 1.860192,-1.679605 -10e-4,-0.475661 -3.61269,-2.528255 -5.626244,-3.197455 -2.652141,-0.881451 -5.646115,-1.208054 -8.241189,-0.899001 -1.35879,0.161807 -3.686956,0.695241 -4.564331,1.045785 -1.430139,0.571377 -3.409449,1.681789 -4.682017,2.62664 -5.33553,3.961548 -8.2741731,10.559844 -7.6112562,17.089986 0.2140912,2.108938 1.3071222,5.915189 1.6878042,5.877412 0.08805,-0.0087 0.61877,-0.247743 1.179355,-0.531128 z M 40.602921,20.413497 c 0.450379,21.73407 0.225188,10.867048 0,0 z"
       id="path3008-1-7-1"
       inkscape:connector-curvature="0"
       sodipodi:nodetypes="cssssssscssssscsccc" />
  </g>
</svg>
