<?xml version="1.0" encoding="UTF-8" standalone="no"?>
<!-- Created with Inkscape (http://www.inkscape.org/) -->

<svg
   xmlns:dc="http://purl.org/dc/elements/1.1/"
   xmlns:cc="http://creativecommons.org/ns#"
   xmlns:rdf="http://www.w3.org/1999/02/22-rdf-syntax-ns#"
   xmlns:svg="http://www.w3.org/2000/svg"
   xmlns="http://www.w3.org/2000/svg"
   xmlns:sodipodi="http://sodipodi.sourceforge.net/DTD/sodipodi-0.dtd"
   xmlns:inkscape="http://www.inkscape.org/namespaces/inkscape"
   width="1052.3622"
   height="744.09448"
   id="svg3065"
   version="1.1"
   inkscape:version="0.48.2 r9819"
   sodipodi:docname="deaduseful-logo-2015.svg"
   inkscape:export-filename="C:\Users\User\BTSync\NetBeansProjects\DeadUseful\default\assets\images\logo.png"
   inkscape:export-xdpi="72"
   inkscape:export-ydpi="72">
  <defs
     id="defs3067" />
  <sodipodi:namedview
     inkscape:document-units="px"
     pagecolor="#ffffff"
     bordercolor="#666666"
     borderopacity="1.0"
     inkscape:pageopacity="0.0"
     inkscape:pageshadow="2"
     inkscape:zoom="2.8284271"
     inkscape:cx="413.55446"
     inkscape:cy="435.65576"
     inkscape:current-layer="g3764"
     id="namedview3069"
     showgrid="false"
     inkscape:window-width="1366"
     inkscape:window-height="706"
     inkscape:window-x="-8"
     inkscape:window-y="-8"
     inkscape:window-maximized="1"
     units="px" />
  <metadata
     id="metadata3071">
    <rdf:RDF>
      <cc:Work
         rdf:about="">
        <dc:format>image/svg+xml</dc:format>
        <dc:type
           rdf:resource="http://purl.org/dc/dcmitype/StillImage" />
        <dc:title></dc:title>
      </cc:Work>
    </rdf:RDF>
  </metadata>
  <g
     inkscape:label="Layer 1"
     inkscape:groupmode="layer"
     id="layer1"
     transform="translate(0,2.421875e-6)">
    <g
       style="fill:#800000"
       id="g3764"
       transform="matrix(0.17175981,0,0,0.17175981,252.62191,277.81747)"
       inkscape:export-filename="C:\Users\User\BTSync\NetBeansProjects\DeadUseful\default\assets\images\logo.png"
       inkscape:export-xdpi="89.938362"
       inkscape:export-ydpi="89.938362">
      <path
         style="fill:#9d9d9d;fill-opacity:1"
         d="m -6.0249765,279.27144 -0.85333,-5.59323 -0.853322,-5.54363 -1.628619,-10.66262 -1.3423325,-6.67869 c -0.125804,-0.62607 1.5192065,-3.13113 9.1510015,-14.87468 7.961037,-12.25011 14.7264005,-22.99376 14.7264005,-23.38602 1.3e-5,-0.24595 -3.2159765,-4.35626 -7.1465875,-9.13411 -3.930626,-4.77787 -8.188112,-9.97531 -9.461069,-11.54987 -1.272971,-1.57457 -2.51352,-2.86283 -2.756775,-2.86283 -0.400857,0 -6.5220785,2.83873 -17.2551115,8.00216 -2.188932,1.05304 -4.082265,2.18141 -4.207383,2.50748 -0.308954,0.80513 0.685588,5.91911 1.319774,6.78639 0.35771,0.4892 2.347162,1.0034 6.652002,1.71936 l 6.141665,1.02139 1.730198,-1.06064 c 0.951611,-0.58333 2.4346055,-1.65659 3.2955495,-2.38502 0.860941,-0.72844 1.772929,-1.19616 2.026645,-1.03935 0.920109,0.56877 0.406668,1.75382 -1.275709,2.9443 -1.782087,1.26109 -1.983876,2.08671 -0.574282,2.34959 1.06317,0.19833 1.884619,0.87849 1.884619,1.56041 0,0.33257 -5.6164945,2.41282 -14.5463325,5.38768 l -14.546344,4.84589 -3.493132,4.05331 c -3.37988,3.92188 -13.068334,17.11983 -13.06581,17.79876 9e-6,0.18392 1.339882,1.96634 2.97601,3.96099 l 2.974815,3.62663 0.01077,2.80887 c 0.006,1.54487 -0.105893,2.92534 -0.248322,3.06778 l -0.286161,10.67274 c 0.355546,0.26511 0.559223,2.24216 0.639994,6.2129 l 0.118391,5.82409 19.946462,0.11074 c 16.9357385,0.0942 19.9464675,0.0196 19.9464635,-0.49088 z M -40.407083,224.326 c 1.310338,-1.44795 2.382443,-2.9084 2.382438,-3.24541 3e-6,-0.69228 -17.375785,-18.86829 -18.037618,-18.86829 -0.94037,0 -9.268769,7.09246 -9.268761,7.89324 -8e-6,0.86354 3.130758,3.59922 9.386557,8.20231 8.449922,6.21746 12.001652,8.65082 12.626722,8.65082 0.290562,-8e-5 1.600318,-1.18469 2.910662,-2.63267 z m 9.849024,-6.4616 c 2.981294,-1.05507 3.862184,-1.54974 3.939345,-2.21225 0.09331,-0.8009 -2.180358,-4.23737 -12.405849,-18.7509 -2.075274,-2.94549 -3.968929,-5.35551 -4.208128,-5.35551 -0.23916,-7e-5 -2.381208,1.62128 -4.760026,3.60283 -2.378813,1.98156 -4.803621,3.97939 -5.388531,4.43963 l -1.063369,0.83679 2.539112,2.70696 c 9.899698,10.55404 15.636865,16.14502 16.540533,16.11908 0.531823,-0.0147 2.694943,-0.63925 4.806913,-1.38663 z m 12.768901,-4.18009 c 5.277787,-1.72984 5.681467,-1.91043 5.244969,-2.34694 -0.481659,-0.48179 -12.460071,-2.26301 -12.817046,-1.90605 -0.695786,0.69581 1.269631,6.09035 2.172935,5.96419 0.170594,-0.0245 2.600205,-0.79388 5.399142,-1.7112 z m -10.851902,-7.09876 c -0.0022,-0.41065 -0.38864,-2.35532 -0.859985,-4.32152 -0.675865,-2.81932 -0.748311,-3.70586 -0.342752,-4.1945 0.282832,-0.34081 2.301804,-1.45498 4.486618,-2.47593 2.184798,-1.02098 3.972365,-2.0245 3.972356,-2.23 3e-6,-0.67214 -8.604157,-11.84068 -9.233611,-11.98558 -0.33717,-0.0777 -1.340651,0.49833 -2.229863,1.27997 -0.889201,0.78162 -2.984694,2.5427 -4.656648,3.91347 -1.671955,1.37076 -3.257883,2.75493 -3.524284,3.07591 -0.480213,0.57862 0.248007,1.73688 6.424557,10.21829 0.854466,1.17331 2.402505,3.32768 3.440094,4.7875 1.962533,2.76115 2.528571,3.1946 2.523518,1.93239 z m 15.682823,-16.77021 c 10.5728295,-3.6296 -2.24275,-12.32325 -4.978024,-15.6799 -0.801934,-0.98422 -1.619798,-1.78951 -1.817471,-1.78951 -0.588291,0 -8.884344,6.87793 -8.884344,7.36567 7e-6,0.89961 9.302337,12.70166 9.97136,12.65084 0.265033,-0.0195 2.833844,-1.16631 5.708479,-2.5471 z"
         id="path3008-1-4"
         inkscape:connector-curvature="0"
         sodipodi:nodetypes="ccccsssssssssscsssscsscscscsccscssccsssssccsssscsccccccccsssscssssscsccscsc"
         inkscape:export-filename="C:\Users\User\BTSync\NetBeansProjects\DeadUseful\default\assets\images\logo.png"
         inkscape:export-xdpi="89.938362"
         inkscape:export-ydpi="89.938362" />
      <path
         style="fill:#9d9d9d;fill-opacity:1"
         d="m -98.370472,265.13498 c 3.2853,-1.52429 8.37323,-3.88771 11.306552,-5.25196 14.303125,-7.1432 16.643486,-6.34324 29.037651,-15.46399 3.499016,-2.60696 4.416896,-3.60322 8.342156,-9.05404 2.425797,-3.3687 4.497062,-6.44454 4.602808,-6.83525 0.120816,-0.44646 -0.258753,-0.99799 -1.021346,-1.4842 -0.667479,-0.42558 -2.892037,-1.97785 -4.943461,-3.44951 -2.051411,-1.47167 -4.067389,-2.66693 -4.479925,-2.65614 -0.412559,0.01 -4.206067,2.80545 -8.430024,6.21022 -8.862574,7.69604 -20.129104,12.94484 -24.601161,15.17539 l -26.999098,7.67769 -0.11936,5.70211 3.25231,4.00247 c 4.58854,5.64679 7.01309,8.27915 7.58589,8.23589 0.27158,-0.0195 3.18174,-1.28443 6.467048,-2.80873 z"
         id="path3008-1-0"
         inkscape:connector-curvature="0"
         sodipodi:nodetypes="sccsscccccccscss"
         inkscape:export-filename="C:\Users\User\BTSync\NetBeansProjects\DeadUseful\default\assets\images\logo.png"
         inkscape:export-xdpi="89.938362"
         inkscape:export-ydpi="89.938362" />
      <path
         sodipodi:nodetypes="ssscsssssssssccssssssssccsssss"
         inkscape:connector-curvature="0"
         id="path2990"
         d="m 70.505526,195.1423 c 2.00306,-1.23004 3.779074,-2.3843 3.946654,-2.5651 0.17555,-0.18946 9.36185,-6.88142 8.98486,-8.83267 -1.72992,-8.95319 -13.274624,-15.55657 -14.759964,-23.65332 l -1.64006,-8.94044 -5.37711,-8.25844 c -6.3247,-9.7138 -6.70104,-10.19072 -12.14674,-15.39354 -2.29842,-2.1959 -5.74503,-5.50865 -7.65919,-7.36158 -1.91416,-1.853 -3.60736,-3.36423 -3.7627,-3.35834 -0.15539,0.007 -1.214733,0.65928 -2.354225,1.45197 -1.139445,0.7927 -4.786569,3.20753 -8.104764,5.36634 -3.318179,2.15875 -6.189374,4.1286 -6.38039,4.3774 -0.332565,0.43311 0.154045,1.27029 6.69597,11.51589 4.327279,6.77733 4.874966,7.60721 4.581738,8.27815 l -0.458693,1.04951 -10.69521,8.38673 c -6.473742,5.58331 -12.2429925,10.51006 -12.8205235,10.94838 -0.577542,0.43827 -2.695665,2.27031 -4.706937,4.07122 -2.011259,1.80088 -5.462249,4.78129 -7.668852,6.62311 -2.20662,1.84183 -4.04928,3.59151 -4.094823,3.88818 -0.0912,0.59426 9.540412,11.60985 10.28051,11.7577 0.253756,0.0505 0.98553,-0.39006 1.62606,-0.97952 0.640531,-0.58946 2.422998,-2.07246 3.961058,-3.2956 1.53804,-1.22315 5.4276985,-5.4584 9.7096265,-7.83346 l 15.433357,-8.56056 7.932528,-5.36442 c 6.48031,1.53471 9.89226,7.23662 11.53452,8.88925 0.90543,0.91119 4.33026,5.75506 7.61071,10.76416 3.28041,5.00918 6.12781,9.14306 6.32751,9.18647 0.19975,0.0435 2.002,-0.92747 4.00508,-2.15747 z"
         style="fill:#9d9d9d;fill-opacity:1"
         inkscape:export-filename="C:\Users\User\BTSync\NetBeansProjects\DeadUseful\default\assets\images\logo.png"
         inkscape:export-xdpi="89.938362"
         inkscape:export-ydpi="89.938362" />
      <path
         style="fill:#9d9d9d;fill-opacity:1"
         d="m -80.196747,232.54081 c 4.540616,-2.29537 4.408917,-2.06955 3.153195,-5.40578 -2.268466,-6.02669 -2.889936,-9.65608 -2.871612,-16.7699 0.03538,-13.70219 4.215607,-24.81096 12.954691,-34.42596 7.487722,-8.23822 17.207715,-13.54007 28.843722,-15.73309 6.031627,-1.13674 15.141977,-0.68813 21.443787,1.05599 5.697685,1.57693 9.9853525,3.47332 14.1102675,6.24081 2.96387002,1.98856 2.97855702,1.993 3.986998,1.20264 4.670631,-3.66055 5.84129,-4.71754 5.840167,-5.27321 -0.0032,-1.49337 -11.342226,-7.93757 -17.6638825,-10.03858 -8.326536,-2.76735 -17.726269,-3.79274 -25.873636,-2.82245 -4.265995,0.508 -11.575393,2.18275 -14.329958,3.28331 -4.489995,1.79386 -10.704141,5.28006 -14.699435,8.24647 -16.751166,12.43748 -25.977189,33.15317 -23.895929,53.65487 0.67215,6.62112 4.103779,18.57106 5.298951,18.45246 0.276438,-0.0274 1.942661,-0.77781 3.702644,-1.66752 z M 10.895634,165.2718 c 1.413988,68.23522 0.707,34.11765 0,0 z"
         id="path3008-1-7-1"
         inkscape:connector-curvature="0"
         sodipodi:nodetypes="cssssssscssssscsccc"
         inkscape:export-filename="C:\Users\User\BTSync\NetBeansProjects\DeadUseful\default\assets\images\logo.png"
         inkscape:export-xdpi="89.938362"
         inkscape:export-ydpi="89.938362" />
    </g>
    <g
       id="g2997"
       transform="matrix(0.26300057,0,0,0.26300057,214.71153,240.72975)"
       inkscape:export-xdpi="89.938362"
       inkscape:export-ydpi="89.938362"
       inkscape:export-filename="C:\Users\User\BTSync\NetBeansProjects\DeadUseful\default\assets\images\logo.png"
       style="fill:#9d9d9d;fill-opacity:1">
      <text
         sodipodi:linespacing="125%"
         id="text2985"
         y="306.07648"
         x="218.77789"
         style="font-size:40px;font-style:normal;font-variant:normal;font-weight:normal;font-stretch:normal;text-align:start;line-height:125%;letter-spacing:0px;word-spacing:0px;text-anchor:start;fill:#9d9d9d;fill-opacity:1;stroke:none;font-family:Verdana;-inkscape-font-specification:Verdana"
         xml:space="preserve"><tspan
           style="font-size:72px;font-style:normal;font-variant:normal;font-weight:normal;font-stretch:normal;text-align:start;text-anchor:start;fill:#9d9d9d;fill-opacity:1;font-family:Helvetica;-inkscape-font-specification:Helvetica"
           y="306.07648"
           x="218.77789"
           id="tspan2987"
           sodipodi:role="line">Dead Useful</tspan></text>
    </g>
  </g>
</svg>
